<svg xmlns="http://www.w3.org/2000/svg" xmlns:xlink="http://www.w3.org/1999/xlink" width="1280" zoomAndPan="magnify" viewBox="0 0 960 959.999988" height="1280" preserveAspectRatio="xMidYMid meet" version="1.0">
    <defs>
        <clipPath id="4ec343074c"><path d="M 75 0 L 885 0 C 926.421875 0 960 33.578125 960 75 L 960 885 C 960 926.421875 926.421875 960 885 960 L 75 960 C 33.578125 960 0 926.421875 0 885 L 0 75 C 0 33.578125 33.578125 0 75 0 Z M 75 0 " clip-rule="nonzero" /></clipPath>
        <linearGradient x1="0" gradientTransform="matrix(3.75, 0, 0, 3.75, 0.00000575, 0.00002)" y1="128" x2="255.999989" gradientUnits="userSpaceOnUse" y2="128" id="4b9768ff02">
            <stop stop-opacity="1" stop-color="rgb(94.099426%, 94.099426%, 94.099426%)" offset="0" />
            <stop stop-opacity="1" stop-color="rgb(93.995667%, 93.971252%, 93.971252%)" offset="0.03125" />
            <stop stop-opacity="1" stop-color="rgb(93.789673%, 93.714905%, 93.714905%)" offset="0.0625" />
            <stop stop-opacity="1" stop-color="rgb(93.583679%, 93.458557%, 93.458557%)" offset="0.09375" />
            <stop stop-opacity="1" stop-color="rgb(93.37616%, 93.202209%, 93.202209%)" offset="0.125" />
            <stop stop-opacity="1" stop-color="rgb(93.170166%, 92.945862%, 92.945862%)" offset="0.15625" />
            <stop stop-opacity="1" stop-color="rgb(92.964172%, 92.689514%, 92.689514%)" offset="0.1875" />
            <stop stop-opacity="1" stop-color="rgb(92.758179%, 92.433167%, 92.433167%)" offset="0.21875" />
            <stop stop-opacity="1" stop-color="rgb(92.552185%, 92.176819%, 92.176819%)" offset="0.25" />
            <stop stop-opacity="1" stop-color="rgb(92.346191%, 91.920471%, 91.920471%)" offset="0.28125" />
            <stop stop-opacity="1" stop-color="rgb(92.138672%, 91.664124%, 91.664124%)" offset="0.3125" />
            <stop stop-opacity="1" stop-color="rgb(91.932678%, 91.409302%, 91.409302%)" offset="0.34375" />
            <stop stop-opacity="1" stop-color="rgb(91.726685%, 91.152954%, 91.152954%)" offset="0.375" />
            <stop stop-opacity="1" stop-color="rgb(91.520691%, 90.896606%, 90.896606%)" offset="0.40625" />
            <stop stop-opacity="1" stop-color="rgb(91.314697%, 90.640259%, 90.640259%)" offset="0.4375" />
            <stop stop-opacity="1" stop-color="rgb(91.108704%, 90.383911%, 90.383911%)" offset="0.46875" />
            <stop stop-opacity="1" stop-color="rgb(90.901184%, 90.127563%, 90.127563%)" offset="0.5" />
            <stop stop-opacity="1" stop-color="rgb(90.69519%, 89.871216%, 89.871216%)" offset="0.53125" />
            <stop stop-opacity="1" stop-color="rgb(90.489197%, 89.614868%, 89.614868%)" offset="0.5625" />
            <stop stop-opacity="1" stop-color="rgb(90.283203%, 89.358521%, 89.358521%)" offset="0.59375" />
            <stop stop-opacity="1" stop-color="rgb(90.077209%, 89.102173%, 89.102173%)" offset="0.625" />
            <stop stop-opacity="1" stop-color="rgb(89.871216%, 88.845825%, 88.845825%)" offset="0.65625" />
            <stop stop-opacity="1" stop-color="rgb(89.663696%, 88.589478%, 88.589478%)" offset="0.6875" />
            <stop stop-opacity="1" stop-color="rgb(89.457703%, 88.33313%, 88.33313%)" offset="0.71875" />
            <stop stop-opacity="1" stop-color="rgb(89.251709%, 88.076782%, 88.076782%)" offset="0.75" />
            <stop stop-opacity="1" stop-color="rgb(89.045715%, 87.820435%, 87.820435%)" offset="0.78125" />
            <stop stop-opacity="1" stop-color="rgb(88.839722%, 87.564087%, 87.564087%)" offset="0.8125" />
            <stop stop-opacity="1" stop-color="rgb(88.633728%, 87.309265%, 87.309265%)" offset="0.84375" />
            <stop stop-opacity="1" stop-color="rgb(88.426208%, 87.052917%, 87.052917%)" offset="0.875" />
            <stop stop-opacity="1" stop-color="rgb(88.220215%, 86.79657%, 86.79657%)" offset="0.90625" />
            <stop stop-opacity="1" stop-color="rgb(88.014221%, 86.540222%, 86.540222%)" offset="0.9375" />
            <stop stop-opacity="1" stop-color="rgb(87.808228%, 86.283875%, 86.283875%)" offset="0.96875" />
            <stop stop-opacity="1" stop-color="rgb(87.602234%, 86.027527%, 86.027527%)" offset="1" />
        </linearGradient>
        <clipPath id="b8ae35fe80"><path d="M 202 163.132812 L 758 163.132812 L 758 796.882812 L 202 796.882812 Z M 202 163.132812 " clip-rule="nonzero" /></clipPath>
    </defs>
    <g clip-path="url(#4ec343074c)"><rect x="-96" fill="url(#4b9768ff02)" width="1152" y="-95.999999" height="1151.999986" /></g>
    <g clip-path="url(#b8ae35fe80)"><path fill="#000000" d="M 718.667969 292.523438 L 518.589844 173.75 C 515.683594 172.023438 512.671875 170.5 509.5625 169.175781 C 506.449219 167.851562 503.265625 166.746094 500.003906 165.851562 C 496.746094 164.957031 493.441406 164.28125 490.089844 163.832031 C 486.738281 163.382812 483.371094 163.15625 479.992188 163.15625 C 476.613281 163.160156 473.246094 163.386719 469.894531 163.839844 C 466.546875 164.292969 463.242188 164.96875 459.980469 165.863281 C 456.722656 166.761719 453.535156 167.871094 450.425781 169.195312 C 447.316406 170.519531 444.308594 172.046875 441.402344 173.777344 L 241.324219 292.523438 C 238.375 294.300781 235.558594 296.257812 232.863281 298.398438 C 230.171875 300.539062 227.628906 302.84375 225.234375 305.316406 C 222.839844 307.785156 220.613281 310.398438 218.558594 313.15625 C 216.5 315.914062 214.632812 318.792969 212.949219 321.792969 C 211.265625 324.792969 209.78125 327.886719 208.496094 331.082031 C 207.214844 334.273438 206.140625 337.53125 205.28125 340.863281 C 204.421875 344.195312 203.777344 347.566406 203.351562 350.980469 C 202.925781 354.394531 202.726562 357.820312 202.742188 361.261719 L 202.742188 598.785156 C 202.742188 627.117188 217.453125 653.339844 241.347656 667.519531 L 441.429688 786.269531 C 444.335938 787.996094 447.34375 789.519531 450.453125 790.84375 C 453.5625 792.164062 456.746094 793.273438 460.003906 794.167969 C 463.261719 795.0625 466.566406 795.738281 469.917969 796.1875 C 473.265625 796.640625 476.628906 796.867188 480.007812 796.867188 C 483.386719 796.867188 486.753906 796.640625 490.101562 796.1875 C 493.449219 795.738281 496.753906 795.0625 500.011719 794.167969 C 503.273438 793.273438 506.457031 792.164062 509.566406 790.84375 C 512.675781 789.519531 515.683594 787.996094 518.589844 786.269531 L 718.667969 667.519531 C 721.617188 665.746094 724.4375 663.789062 727.132812 661.648438 C 729.824219 659.507812 732.371094 657.203125 734.765625 654.734375 C 737.160156 652.265625 739.386719 649.648438 741.445312 646.890625 C 743.503906 644.136719 745.375 641.257812 747.058594 638.257812 C 748.746094 635.257812 750.230469 632.160156 751.511719 628.96875 C 752.796875 625.777344 753.871094 622.515625 754.730469 619.183594 C 755.59375 615.851562 756.238281 612.480469 756.664062 609.066406 C 757.089844 605.652344 757.292969 602.226562 757.273438 598.785156 L 757.273438 361.261719 C 757.292969 357.820312 757.089844 354.390625 756.664062 350.976562 C 756.238281 347.5625 755.59375 344.191406 754.730469 340.859375 C 753.871094 337.53125 752.796875 334.269531 751.511719 331.074219 C 750.230469 327.882812 748.746094 324.789062 747.058594 321.789062 C 745.375 318.789062 743.503906 315.910156 741.445312 313.152344 C 739.386719 310.394531 737.160156 307.78125 734.765625 305.3125 C 732.371094 302.84375 729.824219 300.539062 727.132812 298.398438 C 724.4375 296.257812 721.617188 294.300781 718.667969 292.523438 M 563.71875 663.425781 L 564.058594 680.484375 C 564.085938 682.546875 562.738281 684.894531 561.128906 685.714844 L 551.015625 691.523438 C 549.40625 692.339844 548.085938 691.339844 548.058594 689.277344 L 547.875 672.511719 C 539.210938 676.101562 530.445312 676.972656 524.847656 674.730469 C 523.789062 674.304688 523.339844 672.75 523.765625 670.980469 L 527.433594 655.558594 C 527.71875 654.308594 528.328125 653.242188 529.257812 652.363281 C 529.546875 652.097656 529.863281 651.871094 530.207031 651.675781 C 530.789062 651.375 531.335938 651.324219 531.84375 651.519531 C 537.890625 653.550781 545.601562 652.601562 553.023438 648.851562 C 562.449219 644.070312 568.761719 634.460938 568.65625 624.898438 C 568.574219 616.238281 563.875 612.621094 552.46875 612.542969 C 537.945312 612.570312 524.371094 609.714844 524.160156 588.328125 C 523.976562 570.714844 533.136719 552.386719 547.636719 540.796875 L 547.449219 523.578125 C 547.425781 521.46875 548.71875 519.144531 550.382812 518.296875 L 560.152344 512.066406 C 561.761719 511.246094 563.082031 512.25 563.109375 514.363281 L 563.269531 531.605469 C 570.476562 528.730469 576.761719 527.960938 582.4375 529.28125 C 583.679688 529.601562 584.207031 531.289062 583.707031 533.269531 L 579.902344 548.535156 C 579.601562 549.707031 579.03125 550.726562 578.1875 551.597656 C 577.882812 551.882812 577.546875 552.128906 577.183594 552.335938 C 576.707031 552.566406 576.203125 552.644531 575.679688 552.574219 C 573.089844 551.992188 566.910156 550.644531 557.222656 555.558594 C 547.054688 560.707031 543.488281 569.550781 543.570312 576.101562 C 543.648438 583.945312 547.660156 586.320312 561.550781 586.558594 C 580.035156 586.875 588.035156 594.957031 588.222656 613.570312 C 588.40625 631.765625 578.664062 651.410156 563.71875 663.425781 M 668.628906 634.722656 C 668.628906 636.308594 668.417969 637.785156 667.097656 638.550781 L 616.503906 669.289062 C 615.183594 670.054688 614.125 669.394531 614.125 667.808594 L 614.125 654.765625 C 614.125 653.179688 615.101562 652.308594 616.421875 651.542969 L 666.253906 621.730469 C 667.574219 620.964844 668.628906 621.625 668.628906 623.210938 Z M 703.378906 342.617188 L 514.097656 459.519531 C 490.492188 473.328125 473.089844 488.800781 473.089844 517.269531 L 473.089844 750.515625 C 473.089844 767.546875 479.957031 778.585938 490.519531 781.78125 C 487.046875 782.429688 483.542969 782.773438 480.007812 782.808594 C 468.917969 782.808594 458.011719 779.800781 448.402344 774.09375 L 248.320312 655.347656 C 245.902344 653.878906 243.589844 652.257812 241.382812 650.492188 C 239.175781 648.726562 237.089844 646.824219 235.125 644.789062 C 233.160156 642.753906 231.332031 640.601562 229.644531 638.332031 C 227.957031 636.0625 226.421875 633.695312 225.039062 631.226562 C 223.65625 628.761719 222.4375 626.214844 221.382812 623.589844 C 220.324219 620.96875 219.441406 618.289062 218.730469 615.550781 C 218.019531 612.8125 217.484375 610.042969 217.128906 607.234375 C 216.773438 604.429688 216.601562 601.613281 216.605469 598.785156 L 216.605469 361.261719 C 216.605469 337.996094 228.753906 316.316406 248.320312 304.699219 L 448.402344 185.921875 C 450.78125 184.507812 453.242188 183.253906 455.792969 182.171875 C 458.339844 181.085938 460.949219 180.175781 463.617188 179.441406 C 466.289062 178.707031 468.996094 178.152344 471.738281 177.78125 C 474.484375 177.410156 477.238281 177.226562 480.007812 177.226562 C 482.777344 177.226562 485.535156 177.410156 488.28125 177.78125 C 491.023438 178.152344 493.730469 178.707031 496.402344 179.441406 C 499.070312 180.175781 501.679688 181.085938 504.226562 182.171875 C 506.773438 183.253906 509.238281 184.507812 511.617188 185.921875 L 711.699219 304.699219 C 713.726562 305.925781 715.683594 307.261719 717.566406 308.707031 C 719.449219 310.148438 721.25 311.6875 722.964844 313.324219 C 724.683594 314.960938 726.304688 316.6875 727.832031 318.5 C 729.363281 320.316406 730.789062 322.207031 732.109375 324.175781 C 733.433594 326.144531 734.644531 328.179688 735.75 330.28125 C 736.851562 332.378906 737.835938 334.535156 738.703125 336.742188 C 739.570312 338.949219 740.316406 341.199219 740.941406 343.488281 C 741.566406 345.773438 742.0625 348.089844 742.433594 350.433594 C 735.78125 336.28125 720.835938 332.425781 703.378906 342.617188 " fill-opacity="1" fill-rule="nonzero" /></g>
</svg>