<svg xmlns="http://www.w3.org/2000/svg" xmlns:xlink="http://www.w3.org/1999/xlink" width="1280" zoomAndPan="magnify" viewBox="0 0 960 959.999988" height="1280" preserveAspectRatio="xMidYMid meet" version="1.0">
    <defs>
        <clipPath id="e31caaefe1"><path d="M 75 0 L 885 0 C 926.421875 0 960 33.578125 960 75 L 960 885 C 960 926.421875 926.421875 960 885 960 L 75 960 C 33.578125 960 0 926.421875 0 885 L 0 75 C 0 33.578125 33.578125 0 75 0 Z M 75 0 " clip-rule="nonzero" /></clipPath>
        <linearGradient x1="0" gradientTransform="matrix(3.75, 0, 0, 3.75, 0.00000575, 0.00002)" y1="128" x2="255.999989" gradientUnits="userSpaceOnUse" y2="128" id="d9e69e84b0">
            <stop stop-opacity="1" stop-color="rgb(12.89978%, 12.89978%, 13.299561%)" offset="0" />
            <stop stop-opacity="1" stop-color="rgb(13.05542%, 13.027954%, 13.424683%)" offset="0.015625" />
            <stop stop-opacity="1" stop-color="rgb(13.366699%, 13.285828%, 13.676453%)" offset="0.03125" />
            <stop stop-opacity="1" stop-color="rgb(13.679504%, 13.543701%, 13.928223%)" offset="0.046875" />
            <stop stop-opacity="1" stop-color="rgb(13.99231%, 13.801575%, 14.178467%)" offset="0.0625" />
            <stop stop-opacity="1" stop-color="rgb(14.305115%, 14.057922%, 14.430237%)" offset="0.078125" />
            <stop stop-opacity="1" stop-color="rgb(14.61792%, 14.315796%, 14.682007%)" offset="0.09375" />
            <stop stop-opacity="1" stop-color="rgb(14.929199%, 14.573669%, 14.933777%)" offset="0.109375" />
            <stop stop-opacity="1" stop-color="rgb(15.242004%, 14.831543%, 15.185547%)" offset="0.125" />
            <stop stop-opacity="1" stop-color="rgb(15.55481%, 15.089417%, 15.437317%)" offset="0.140625" />
            <stop stop-opacity="1" stop-color="rgb(15.867615%, 15.34729%, 15.689087%)" offset="0.15625" />
            <stop stop-opacity="1" stop-color="rgb(16.18042%, 15.605164%, 15.939331%)" offset="0.171875" />
            <stop stop-opacity="1" stop-color="rgb(16.491699%, 15.863037%, 16.191101%)" offset="0.1875" />
            <stop stop-opacity="1" stop-color="rgb(16.804504%, 16.120911%, 16.442871%)" offset="0.203125" />
            <stop stop-opacity="1" stop-color="rgb(17.11731%, 16.378784%, 16.694641%)" offset="0.21875" />
            <stop stop-opacity="1" stop-color="rgb(17.430115%, 16.636658%, 16.946411%)" offset="0.234375" />
            <stop stop-opacity="1" stop-color="rgb(17.74292%, 16.894531%, 17.198181%)" offset="0.25" />
            <stop stop-opacity="1" stop-color="rgb(18.054199%, 17.152405%, 17.449951%)" offset="0.265625" />
            <stop stop-opacity="1" stop-color="rgb(18.367004%, 17.410278%, 17.700195%)" offset="0.28125" />
            <stop stop-opacity="1" stop-color="rgb(18.67981%, 17.668152%, 17.951965%)" offset="0.296875" />
            <stop stop-opacity="1" stop-color="rgb(18.992615%, 17.926025%, 18.203735%)" offset="0.3125" />
            <stop stop-opacity="1" stop-color="rgb(19.30542%, 18.183899%, 18.455505%)" offset="0.328125" />
            <stop stop-opacity="1" stop-color="rgb(19.616699%, 18.441772%, 18.707275%)" offset="0.34375" />
            <stop stop-opacity="1" stop-color="rgb(19.929504%, 18.699646%, 18.959045%)" offset="0.359375" />
            <stop stop-opacity="1" stop-color="rgb(20.24231%, 18.95752%, 19.210815%)" offset="0.375" />
            <stop stop-opacity="1" stop-color="rgb(20.555115%, 19.215393%, 19.462585%)" offset="0.390625" />
            <stop stop-opacity="1" stop-color="rgb(20.86792%, 19.473267%, 19.71283%)" offset="0.40625" />
            <stop stop-opacity="1" stop-color="rgb(21.179199%, 19.73114%, 19.9646%)" offset="0.421875" />
            <stop stop-opacity="1" stop-color="rgb(21.492004%, 19.989014%, 20.21637%)" offset="0.4375" />
            <stop stop-opacity="1" stop-color="rgb(21.80481%, 20.246887%, 20.46814%)" offset="0.453125" />
            <stop stop-opacity="1" stop-color="rgb(22.117615%, 20.503235%, 20.71991%)" offset="0.46875" />
            <stop stop-opacity="1" stop-color="rgb(22.43042%, 20.761108%, 20.97168%)" offset="0.484375" />
            <stop stop-opacity="1" stop-color="rgb(22.741699%, 21.018982%, 21.22345%)" offset="0.5" />
            <stop stop-opacity="1" stop-color="rgb(23.054504%, 21.276855%, 21.473694%)" offset="0.515625" />
            <stop stop-opacity="1" stop-color="rgb(23.36731%, 21.534729%, 21.725464%)" offset="0.53125" />
            <stop stop-opacity="1" stop-color="rgb(23.680115%, 21.792603%, 21.977234%)" offset="0.546875" />
            <stop stop-opacity="1" stop-color="rgb(23.99292%, 22.050476%, 22.229004%)" offset="0.5625" />
            <stop stop-opacity="1" stop-color="rgb(24.304199%, 22.30835%, 22.480774%)" offset="0.578125" />
            <stop stop-opacity="1" stop-color="rgb(24.617004%, 22.566223%, 22.732544%)" offset="0.59375" />
            <stop stop-opacity="1" stop-color="rgb(24.92981%, 22.824097%, 22.984314%)" offset="0.609375" />
            <stop stop-opacity="1" stop-color="rgb(25.242615%, 23.08197%, 23.234558%)" offset="0.625" />
            <stop stop-opacity="1" stop-color="rgb(25.55542%, 23.339844%, 23.486328%)" offset="0.640625" />
            <stop stop-opacity="1" stop-color="rgb(25.866699%, 23.597717%, 23.738098%)" offset="0.65625" />
            <stop stop-opacity="1" stop-color="rgb(26.179504%, 23.855591%, 23.989868%)" offset="0.671875" />
            <stop stop-opacity="1" stop-color="rgb(26.49231%, 24.113464%, 24.241638%)" offset="0.6875" />
            <stop stop-opacity="1" stop-color="rgb(26.805115%, 24.371338%, 24.493408%)" offset="0.703125" />
            <stop stop-opacity="1" stop-color="rgb(27.11792%, 24.629211%, 24.745178%)" offset="0.71875" />
            <stop stop-opacity="1" stop-color="rgb(27.429199%, 24.887085%, 24.996948%)" offset="0.734375" />
            <stop stop-opacity="1" stop-color="rgb(27.742004%, 25.144958%, 25.247192%)" offset="0.75" />
            <stop stop-opacity="1" stop-color="rgb(28.05481%, 25.402832%, 25.498962%)" offset="0.765625" />
            <stop stop-opacity="1" stop-color="rgb(28.367615%, 25.660706%, 25.750732%)" offset="0.78125" />
            <stop stop-opacity="1" stop-color="rgb(28.68042%, 25.918579%, 26.002502%)" offset="0.796875" />
            <stop stop-opacity="1" stop-color="rgb(28.991699%, 26.176453%, 26.254272%)" offset="0.8125" />
            <stop stop-opacity="1" stop-color="rgb(29.304504%, 26.434326%, 26.506042%)" offset="0.828125" />
            <stop stop-opacity="1" stop-color="rgb(29.61731%, 26.6922%, 26.757812%)" offset="0.84375" />
            <stop stop-opacity="1" stop-color="rgb(29.930115%, 26.948547%, 27.008057%)" offset="0.859375" />
            <stop stop-opacity="1" stop-color="rgb(30.24292%, 27.206421%, 27.259827%)" offset="0.875" />
            <stop stop-opacity="1" stop-color="rgb(30.554199%, 27.464294%, 27.511597%)" offset="0.890625" />
            <stop stop-opacity="1" stop-color="rgb(30.867004%, 27.722168%, 27.763367%)" offset="0.90625" />
            <stop stop-opacity="1" stop-color="rgb(31.17981%, 27.980042%, 28.015137%)" offset="0.921875" />
            <stop stop-opacity="1" stop-color="rgb(31.492615%, 28.237915%, 28.266907%)" offset="0.9375" />
            <stop stop-opacity="1" stop-color="rgb(31.80542%, 28.495789%, 28.518677%)" offset="0.953125" />
            <stop stop-opacity="1" stop-color="rgb(32.116699%, 28.753662%, 28.768921%)" offset="0.96875" />
            <stop stop-opacity="1" stop-color="rgb(32.429504%, 29.011536%, 29.020691%)" offset="0.984375" />
            <stop stop-opacity="1" stop-color="rgb(32.74231%, 29.269409%, 29.272461%)" offset="1" />
        </linearGradient>
        <clipPath id="653dde4df6"><path d="M 202 163.132812 L 758 163.132812 L 758 796.882812 L 202 796.882812 Z M 202 163.132812 " clip-rule="nonzero" /></clipPath>
    </defs>
    <g clip-path="url(#e31caaefe1)"><rect x="-96" fill="url(#d9e69e84b0)" width="1152" y="-95.999999" height="1151.999986" /></g>
    <g clip-path="url(#653dde4df6)"><path fill="#ffffff" d="M 718.648438 292.519531 L 518.574219 173.75 C 515.667969 172.023438 512.660156 170.5 509.550781 169.175781 C 506.4375 167.851562 503.253906 166.746094 499.992188 165.851562 C 496.734375 164.957031 493.425781 164.28125 490.078125 163.832031 C 486.726562 163.382812 483.359375 163.15625 479.980469 163.15625 C 476.601562 163.160156 473.234375 163.386719 469.882812 163.839844 C 466.535156 164.292969 463.230469 164.96875 459.96875 165.863281 C 456.710938 166.761719 453.527344 167.871094 450.417969 169.195312 C 447.304688 170.519531 444.296875 172.046875 441.394531 173.777344 L 241.320312 292.519531 C 238.375 294.296875 235.554688 296.253906 232.863281 298.394531 C 230.167969 300.535156 227.625 302.839844 225.230469 305.308594 C 222.835938 307.78125 220.613281 310.394531 218.554688 313.152344 C 216.5 315.910156 214.628906 318.789062 212.945312 321.789062 C 211.261719 324.785156 209.777344 327.882812 208.496094 331.074219 C 207.210938 334.265625 206.140625 337.527344 205.28125 340.855469 C 204.417969 344.1875 203.777344 347.558594 203.351562 350.972656 C 202.925781 354.386719 202.722656 357.8125 202.742188 361.253906 L 202.742188 598.769531 C 202.742188 627.101562 217.449219 653.320312 241.347656 667.5 L 441.417969 786.246094 C 444.324219 787.972656 447.332031 789.496094 450.441406 790.820312 C 453.550781 792.140625 456.734375 793.25 459.992188 794.144531 C 463.253906 795.039062 466.554688 795.714844 469.90625 796.164062 C 473.253906 796.617188 476.617188 796.84375 479.996094 796.84375 C 483.375 796.84375 486.742188 796.617188 490.089844 796.164062 C 493.4375 795.714844 496.742188 795.039062 500 794.144531 C 503.257812 793.25 506.445312 792.140625 509.554688 790.820312 C 512.664062 789.496094 515.671875 787.972656 518.574219 786.246094 L 718.648438 667.5 C 721.59375 665.726562 724.417969 663.769531 727.109375 661.628906 C 729.804688 659.488281 732.347656 657.183594 734.746094 654.714844 C 737.140625 652.246094 739.367188 649.632812 741.425781 646.875 C 743.480469 644.117188 745.351562 641.238281 747.039062 638.238281 C 748.722656 635.238281 750.207031 632.144531 751.492188 628.953125 C 752.773438 625.761719 753.847656 622.5 754.710938 619.167969 C 755.574219 615.835938 756.214844 612.464844 756.640625 609.050781 C 757.066406 605.636719 757.269531 602.210938 757.253906 598.769531 L 757.253906 361.253906 C 757.269531 357.8125 757.066406 354.386719 756.640625 350.972656 C 756.214844 347.558594 755.574219 344.183594 754.710938 340.855469 C 753.847656 337.523438 752.773438 334.261719 751.492188 331.070312 C 750.207031 327.878906 748.722656 324.78125 747.039062 321.78125 C 745.351562 318.78125 743.480469 315.90625 741.425781 313.148438 C 739.367188 310.390625 737.140625 307.777344 734.746094 305.304688 C 732.347656 302.835938 729.804688 300.53125 727.109375 298.390625 C 724.417969 296.253906 721.59375 294.296875 718.648438 292.519531 M 563.703125 663.410156 L 564.046875 680.464844 C 564.070312 682.527344 562.726562 684.875 561.113281 685.695312 L 551 691.503906 C 549.390625 692.324219 548.070312 691.320312 548.042969 689.257812 L 547.859375 672.492188 C 539.199219 676.082031 530.429688 676.953125 524.832031 674.710938 C 523.777344 674.289062 523.328125 672.730469 523.75 670.960938 L 527.421875 655.539062 C 527.707031 654.289062 528.3125 653.226562 529.242188 652.34375 C 529.535156 652.082031 529.851562 651.851562 530.195312 651.660156 C 530.773438 651.359375 531.320312 651.304688 531.832031 651.5 C 537.878906 653.53125 545.589844 652.582031 553.007812 648.832031 C 562.433594 644.054688 568.746094 634.441406 568.640625 624.882812 C 568.5625 616.222656 563.859375 612.605469 552.453125 612.527344 C 537.929688 612.550781 524.359375 609.699219 524.148438 588.3125 C 523.960938 570.699219 533.125 552.375 547.621094 540.78125 L 547.4375 523.566406 C 547.410156 521.453125 548.703125 519.128906 550.367188 518.285156 L 560.136719 512.054688 C 561.75 511.234375 563.070312 512.238281 563.09375 514.351562 L 563.253906 531.59375 C 570.460938 528.714844 576.746094 527.949219 582.421875 529.269531 C 583.664062 529.585938 584.191406 531.277344 583.691406 533.257812 L 579.886719 548.519531 C 579.585938 549.691406 579.015625 550.710938 578.171875 551.582031 C 577.867188 551.867188 577.53125 552.113281 577.167969 552.320312 C 576.691406 552.550781 576.1875 552.632812 575.664062 552.558594 C 573.074219 551.976562 566.898438 550.632812 557.207031 555.542969 C 547.039062 560.691406 543.476562 569.539062 543.554688 576.085938 C 543.632812 583.929688 547.648438 586.304688 561.535156 586.542969 C 580.019531 586.859375 588.019531 594.941406 588.207031 613.554688 C 588.390625 631.75 578.648438 651.394531 563.703125 663.410156 M 668.609375 634.707031 C 668.609375 636.289062 668.398438 637.769531 667.078125 638.535156 L 616.484375 669.269531 C 615.164062 670.035156 614.109375 669.375 614.109375 667.792969 L 614.109375 654.746094 C 614.109375 653.164062 615.085938 652.292969 616.40625 651.527344 L 666.234375 621.714844 C 667.554688 620.949219 668.609375 621.609375 668.609375 623.195312 Z M 703.359375 342.609375 L 514.085938 459.507812 C 490.480469 473.316406 473.078125 488.789062 473.078125 517.253906 L 473.078125 750.492188 C 473.078125 767.523438 479.945312 778.5625 490.507812 781.757812 C 487.035156 782.40625 483.53125 782.75 479.996094 782.785156 C 468.90625 782.785156 458 779.777344 448.390625 774.074219 L 248.316406 655.328125 C 245.902344 653.859375 243.589844 652.242188 241.378906 650.472656 C 239.171875 648.707031 237.085938 646.808594 235.121094 644.773438 C 233.15625 642.738281 231.332031 640.585938 229.644531 638.316406 C 227.957031 636.046875 226.421875 633.675781 225.039062 631.210938 C 223.65625 628.742188 222.433594 626.199219 221.378906 623.574219 C 220.324219 620.953125 219.4375 618.269531 218.726562 615.535156 C 218.015625 612.796875 217.484375 610.023438 217.128906 607.21875 C 216.773438 604.414062 216.597656 601.597656 216.605469 598.769531 L 216.605469 361.253906 C 216.605469 337.988281 228.75 316.3125 248.316406 304.691406 L 448.390625 185.921875 C 450.769531 184.503906 453.234375 183.253906 455.78125 182.167969 C 458.328125 181.085938 460.9375 180.175781 463.605469 179.441406 C 466.277344 178.707031 468.984375 178.152344 471.726562 177.78125 C 474.472656 177.410156 477.226562 177.226562 479.996094 177.226562 C 482.765625 177.226562 485.523438 177.410156 488.265625 177.78125 C 491.011719 178.152344 493.71875 178.707031 496.386719 179.441406 C 499.058594 180.175781 501.667969 181.085938 504.214844 182.167969 C 506.761719 183.253906 509.226562 184.503906 511.605469 185.921875 L 711.675781 304.691406 C 713.707031 305.921875 715.660156 307.257812 717.546875 308.699219 C 719.429688 310.140625 721.230469 311.679688 722.945312 313.320312 C 724.660156 314.957031 726.285156 316.683594 727.8125 318.496094 C 729.339844 320.308594 730.765625 322.199219 732.089844 324.167969 C 733.414062 326.136719 734.625 328.171875 735.726562 330.273438 C 736.828125 332.375 737.8125 334.527344 738.683594 336.734375 C 739.550781 338.945312 740.296875 341.191406 740.917969 343.480469 C 741.542969 345.769531 742.039062 348.085938 742.414062 350.425781 C 735.757812 336.273438 720.8125 332.417969 703.359375 342.609375 " fill-opacity="1" fill-rule="nonzero" /></g>
</svg>