<svg xmlns="http://www.w3.org/2000/svg" xmlns:xlink="http://www.w3.org/1999/xlink" width="1280" zoomAndPan="magnify" viewBox="0 0 960 959.999988" height="1280" preserveAspectRatio="xMidYMid meet" version="1.0"><defs><clipPath id="e93f694fd3"><path d="M 75 0 L 885 0 C 926.421875 0 960 33.578125 960 75 L 960 885 C 960 926.421875 926.421875 960 885 960 L 75 960 C 33.578125 960 0 926.421875 0 885 L 0 75 C 0 33.578125 33.578125 0 75 0 Z M 75 0 " clip-rule="nonzero"/></clipPath><linearGradient x1="0" gradientTransform="matrix(3.75, 0, 0, 3.75, 0.00000575, 0.00002)" y1="128" x2="255.999989" gradientUnits="userSpaceOnUse" y2="128" id="c42343da28"><stop stop-opacity="1" stop-color="rgb(94.099426%, 94.099426%, 94.099426%)" offset="0"/><stop stop-opacity="1" stop-color="rgb(93.995667%, 93.971252%, 93.971252%)" offset="0.03125"/><stop stop-opacity="1" stop-color="rgb(93.789673%, 93.714905%, 93.714905%)" offset="0.0625"/><stop stop-opacity="1" stop-color="rgb(93.583679%, 93.458557%, 93.458557%)" offset="0.09375"/><stop stop-opacity="1" stop-color="rgb(93.37616%, 93.202209%, 93.202209%)" offset="0.125"/><stop stop-opacity="1" stop-color="rgb(93.170166%, 92.945862%, 92.945862%)" offset="0.15625"/><stop stop-opacity="1" stop-color="rgb(92.964172%, 92.689514%, 92.689514%)" offset="0.1875"/><stop stop-opacity="1" stop-color="rgb(92.758179%, 92.433167%, 92.433167%)" offset="0.21875"/><stop stop-opacity="1" stop-color="rgb(92.552185%, 92.176819%, 92.176819%)" offset="0.25"/><stop stop-opacity="1" stop-color="rgb(92.346191%, 91.920471%, 91.920471%)" offset="0.28125"/><stop stop-opacity="1" stop-color="rgb(92.138672%, 91.664124%, 91.664124%)" offset="0.3125"/><stop stop-opacity="1" stop-color="rgb(91.932678%, 91.409302%, 91.409302%)" offset="0.34375"/><stop stop-opacity="1" stop-color="rgb(91.726685%, 91.152954%, 91.152954%)" offset="0.375"/><stop stop-opacity="1" stop-color="rgb(91.520691%, 90.896606%, 90.896606%)" offset="0.40625"/><stop stop-opacity="1" stop-color="rgb(91.314697%, 90.640259%, 90.640259%)" offset="0.4375"/><stop stop-opacity="1" stop-color="rgb(91.108704%, 90.383911%, 90.383911%)" offset="0.46875"/><stop stop-opacity="1" stop-color="rgb(90.901184%, 90.127563%, 90.127563%)" offset="0.5"/><stop stop-opacity="1" stop-color="rgb(90.69519%, 89.871216%, 89.871216%)" offset="0.53125"/><stop stop-opacity="1" stop-color="rgb(90.489197%, 89.614868%, 89.614868%)" offset="0.5625"/><stop stop-opacity="1" stop-color="rgb(90.283203%, 89.358521%, 89.358521%)" offset="0.59375"/><stop stop-opacity="1" stop-color="rgb(90.077209%, 89.102173%, 89.102173%)" offset="0.625"/><stop stop-opacity="1" stop-color="rgb(89.871216%, 88.845825%, 88.845825%)" offset="0.65625"/><stop stop-opacity="1" stop-color="rgb(89.663696%, 88.589478%, 88.589478%)" offset="0.6875"/><stop stop-opacity="1" stop-color="rgb(89.457703%, 88.33313%, 88.33313%)" offset="0.71875"/><stop stop-opacity="1" stop-color="rgb(89.251709%, 88.076782%, 88.076782%)" offset="0.75"/><stop stop-opacity="1" stop-color="rgb(89.045715%, 87.820435%, 87.820435%)" offset="0.78125"/><stop stop-opacity="1" stop-color="rgb(88.839722%, 87.564087%, 87.564087%)" offset="0.8125"/><stop stop-opacity="1" stop-color="rgb(88.633728%, 87.309265%, 87.309265%)" offset="0.84375"/><stop stop-opacity="1" stop-color="rgb(88.426208%, 87.052917%, 87.052917%)" offset="0.875"/><stop stop-opacity="1" stop-color="rgb(88.220215%, 86.79657%, 86.79657%)" offset="0.90625"/><stop stop-opacity="1" stop-color="rgb(88.014221%, 86.540222%, 86.540222%)" offset="0.9375"/><stop stop-opacity="1" stop-color="rgb(87.808228%, 86.283875%, 86.283875%)" offset="0.96875"/><stop stop-opacity="1" stop-color="rgb(87.602234%, 86.027527%, 86.027527%)" offset="1"/></linearGradient></defs><g clip-path="url(#e93f694fd3)"><rect x="-96" fill="url(#c42343da28)" width="1152" y="-95.999999" height="1151.999986"/></g><path fill="#000000" d="M 769.214844 252.800781 L 526.753906 108.863281 C 524.992188 107.820312 523.199219 106.835938 521.375 105.910156 C 519.550781 104.984375 517.695312 104.121094 515.8125 103.320312 C 513.929688 102.519531 512.023438 101.785156 510.089844 101.113281 C 508.15625 100.441406 506.203125 99.832031 504.230469 99.292969 C 502.257812 98.75 500.269531 98.273438 498.265625 97.867188 C 496.257812 97.457031 494.242188 97.117188 492.214844 96.84375 C 490.1875 96.574219 488.152344 96.367188 486.109375 96.230469 C 484.070312 96.09375 482.027344 96.027344 479.980469 96.027344 C 477.933594 96.027344 475.890625 96.097656 473.847656 96.234375 C 471.808594 96.375 469.773438 96.578125 467.746094 96.855469 C 465.71875 97.128906 463.699219 97.46875 461.695312 97.878906 C 459.691406 98.289062 457.703125 98.765625 455.730469 99.308594 C 453.757812 99.851562 451.804688 100.460938 449.871094 101.132812 C 447.941406 101.804688 446.035156 102.542969 444.152344 103.347656 C 442.269531 104.148438 440.414062 105.011719 438.589844 105.9375 C 436.765625 106.863281 434.972656 107.851562 433.214844 108.894531 L 190.753906 252.800781 C 187.183594 254.953125 183.765625 257.324219 180.5 259.917969 C 177.238281 262.511719 174.15625 265.308594 171.253906 268.300781 C 168.351562 271.292969 165.65625 274.460938 163.164062 277.800781 C 160.671875 281.144531 158.40625 284.632812 156.367188 288.269531 C 154.324219 291.902344 152.527344 295.65625 150.972656 299.523438 C 149.417969 303.390625 148.117188 307.34375 147.074219 311.378906 C 146.03125 315.414062 145.253906 319.5 144.738281 323.636719 C 144.222656 327.773438 143.976562 331.925781 144 336.097656 L 144 623.9375 C 144 658.273438 161.824219 690.046875 190.785156 707.230469 L 433.246094 851.136719 C 435.007812 852.179688 436.796875 853.164062 438.621094 854.089844 C 440.445312 855.015625 442.300781 855.878906 444.183594 856.679688 C 446.0625 857.480469 447.972656 858.214844 449.902344 858.886719 C 451.832031 859.5625 453.785156 860.167969 455.757812 860.710938 C 457.730469 861.25 459.71875 861.726562 461.722656 862.136719 C 463.726562 862.542969 465.742188 862.882812 467.769531 863.15625 C 469.796875 863.429688 471.832031 863.636719 473.871094 863.773438 C 475.910156 863.910156 477.953125 863.976562 480 863.976562 C 482.046875 863.976562 484.089844 863.910156 486.128906 863.773438 C 488.167969 863.636719 490.203125 863.429688 492.230469 863.15625 C 494.257812 862.882812 496.273438 862.542969 498.277344 862.136719 C 500.28125 861.726562 502.269531 861.25 504.242188 860.710938 C 506.214844 860.167969 508.167969 859.558594 510.097656 858.886719 C 512.027344 858.214844 513.9375 857.480469 515.816406 856.679688 C 517.699219 855.878906 519.554688 855.015625 521.378906 854.089844 C 523.203125 853.164062 524.992188 852.179688 526.753906 851.136719 L 769.214844 707.230469 C 772.789062 705.082031 776.207031 702.710938 779.472656 700.117188 C 782.734375 697.523438 785.820312 694.730469 788.722656 691.738281 C 791.625 688.746094 794.324219 685.578125 796.816406 682.234375 C 799.3125 678.894531 801.578125 675.40625 803.621094 671.769531 C 805.664062 668.132812 807.460938 664.382812 809.019531 660.515625 C 810.574219 656.644531 811.875 652.695312 812.917969 648.65625 C 813.964844 644.621094 814.742188 640.535156 815.257812 636.394531 C 815.773438 632.257812 816.023438 628.105469 816 623.9375 L 816 336.097656 C 816.023438 331.925781 815.773438 327.773438 815.257812 323.636719 C 814.742188 319.5 813.964844 315.410156 812.917969 311.375 C 811.875 307.339844 810.574219 303.386719 809.019531 299.519531 C 807.460938 295.648438 805.664062 291.898438 803.621094 288.261719 C 801.578125 284.628906 799.3125 281.140625 796.816406 277.796875 C 794.324219 274.457031 791.625 271.289062 788.722656 268.296875 C 785.820312 265.304688 782.734375 262.511719 779.472656 259.917969 C 776.207031 257.324219 772.789062 254.949219 769.214844 252.800781 M 581.441406 702.273438 L 581.855469 722.945312 C 581.886719 725.441406 580.257812 728.289062 578.304688 729.28125 L 566.046875 736.320312 C 564.097656 737.3125 562.496094 736.097656 562.464844 733.601562 L 562.238281 713.28125 C 551.742188 717.632812 541.121094 718.6875 534.335938 715.96875 C 533.054688 715.457031 532.511719 713.566406 533.023438 711.425781 L 537.472656 692.734375 C 537.816406 691.222656 538.550781 689.929688 539.679688 688.863281 C 540.03125 688.542969 540.417969 688.265625 540.832031 688.03125 C 541.535156 687.667969 542.199219 687.605469 542.816406 687.839844 C 550.144531 690.304688 559.488281 689.152344 568.480469 684.609375 C 579.902344 678.816406 587.550781 667.167969 587.425781 655.585938 C 587.328125 645.089844 581.632812 640.703125 567.808594 640.609375 C 550.207031 640.640625 533.761719 637.183594 533.503906 611.265625 C 533.28125 589.921875 544.382812 567.710938 561.953125 553.664062 L 561.726562 532.800781 C 561.695312 530.238281 563.265625 527.425781 565.28125 526.398438 L 577.121094 518.847656 C 579.070312 517.855469 580.671875 519.070312 580.703125 521.632812 L 580.894531 542.527344 C 589.632812 539.039062 597.246094 538.113281 604.128906 539.710938 C 605.632812 540.097656 606.273438 542.144531 605.664062 544.542969 L 601.054688 563.039062 C 600.691406 564.460938 599.996094 565.699219 598.976562 566.753906 C 598.605469 567.097656 598.199219 567.398438 597.761719 567.648438 C 597.179688 567.925781 596.574219 568.023438 595.9375 567.9375 C 592.800781 567.230469 585.3125 565.601562 573.566406 571.550781 C 561.246094 577.792969 556.929688 588.511719 557.023438 596.449219 C 557.121094 605.953125 561.984375 608.832031 578.816406 609.121094 C 601.214844 609.503906 610.910156 619.296875 611.136719 641.855469 C 611.359375 663.902344 599.550781 687.710938 581.441406 702.273438 M 708.574219 667.488281 C 708.574219 669.40625 708.320312 671.199219 706.71875 672.128906 L 645.40625 709.375 C 643.808594 710.304688 642.527344 709.503906 642.527344 707.585938 L 642.527344 691.777344 C 642.527344 689.855469 643.710938 688.800781 645.3125 687.871094 L 705.695312 651.742188 C 707.296875 650.816406 708.574219 651.617188 708.574219 653.535156 Z M 750.6875 313.503906 L 521.3125 455.167969 C 492.703125 471.902344 471.617188 490.65625 471.617188 525.152344 L 471.617188 807.808594 C 471.617188 828.449219 479.9375 841.824219 492.734375 845.695312 C 488.527344 846.484375 484.28125 846.898438 480 846.945312 C 466.558594 846.945312 453.34375 843.296875 441.695312 836.382812 L 199.230469 692.480469 C 196.304688 690.699219 193.5 688.738281 190.824219 686.597656 C 188.148438 684.457031 185.621094 682.152344 183.238281 679.6875 C 180.859375 677.21875 178.648438 674.613281 176.601562 671.863281 C 174.558594 669.113281 172.695312 666.242188 171.019531 663.253906 C 169.34375 660.261719 167.867188 657.179688 166.585938 654 C 165.304688 650.820312 164.234375 647.570312 163.371094 644.253906 C 162.511719 640.9375 161.863281 637.578125 161.433594 634.175781 C 161.003906 630.777344 160.792969 627.363281 160.800781 623.9375 L 160.800781 336.097656 C 160.800781 307.902344 175.519531 281.632812 199.230469 267.550781 L 441.695312 123.617188 C 444.578125 121.898438 447.566406 120.382812 450.652344 119.066406 C 453.738281 117.753906 456.902344 116.648438 460.136719 115.761719 C 463.371094 114.871094 466.652344 114.199219 469.976562 113.75 C 473.304688 113.300781 476.644531 113.078125 480 113.078125 C 483.355469 113.078125 486.695312 113.300781 490.023438 113.75 C 493.347656 114.199219 496.628906 114.871094 499.863281 115.761719 C 503.097656 116.648438 506.261719 117.753906 509.347656 119.066406 C 512.433594 120.382812 515.421875 121.898438 518.304688 123.617188 L 760.769531 267.550781 C 763.226562 269.042969 765.597656 270.660156 767.878906 272.40625 C 770.160156 274.15625 772.34375 276.019531 774.421875 278.003906 C 776.503906 279.988281 778.46875 282.082031 780.320312 284.28125 C 782.171875 286.476562 783.902344 288.769531 785.503906 291.15625 C 787.109375 293.542969 788.578125 296.007812 789.914062 298.554688 C 791.25 301.097656 792.441406 303.707031 793.496094 306.382812 C 794.546875 309.058594 795.449219 311.785156 796.207031 314.558594 C 796.960938 317.332031 797.566406 320.136719 798.015625 322.976562 C 789.953125 305.824219 771.839844 301.152344 750.6875 313.503906 " fill-opacity="1" fill-rule="nonzero"/></svg>