<svg xmlns="http://www.w3.org/2000/svg" xmlns:xlink="http://www.w3.org/1999/xlink" width="1280" zoomAndPan="magnify" viewBox="0 0 960 959.999988" height="1280" preserveAspectRatio="xMidYMid meet" version="1.0">
    <defs>
        <clipPath id="53bc262075"><path d="M 75 0 L 885 0 C 926.421875 0 960 33.578125 960 75 L 960 885 C 960 926.421875 926.421875 960 885 960 L 75 960 C 33.578125 960 0 926.421875 0 885 L 0 75 C 0 33.578125 33.578125 0 75 0 Z M 75 0 " clip-rule="nonzero" /></clipPath>
        <linearGradient x1="0" gradientTransform="matrix(3.75, 0, 0, 3.75, 0.00000575, 0.00002)" y1="128" x2="255.999989" gradientUnits="userSpaceOnUse" y2="128" id="4a472caf60">
            <stop stop-opacity="1" stop-color="rgb(94.099426%, 94.099426%, 94.099426%)" offset="0" />
            <stop stop-opacity="1" stop-color="rgb(93.995667%, 93.971252%, 93.971252%)" offset="0.03125" />
            <stop stop-opacity="1" stop-color="rgb(93.789673%, 93.714905%, 93.714905%)" offset="0.0625" />
            <stop stop-opacity="1" stop-color="rgb(93.583679%, 93.458557%, 93.458557%)" offset="0.09375" />
            <stop stop-opacity="1" stop-color="rgb(93.37616%, 93.202209%, 93.202209%)" offset="0.125" />
            <stop stop-opacity="1" stop-color="rgb(93.170166%, 92.945862%, 92.945862%)" offset="0.15625" />
            <stop stop-opacity="1" stop-color="rgb(92.964172%, 92.689514%, 92.689514%)" offset="0.1875" />
            <stop stop-opacity="1" stop-color="rgb(92.758179%, 92.433167%, 92.433167%)" offset="0.21875" />
            <stop stop-opacity="1" stop-color="rgb(92.552185%, 92.176819%, 92.176819%)" offset="0.25" />
            <stop stop-opacity="1" stop-color="rgb(92.346191%, 91.920471%, 91.920471%)" offset="0.28125" />
            <stop stop-opacity="1" stop-color="rgb(92.138672%, 91.664124%, 91.664124%)" offset="0.3125" />
            <stop stop-opacity="1" stop-color="rgb(91.932678%, 91.409302%, 91.409302%)" offset="0.34375" />
            <stop stop-opacity="1" stop-color="rgb(91.726685%, 91.152954%, 91.152954%)" offset="0.375" />
            <stop stop-opacity="1" stop-color="rgb(91.520691%, 90.896606%, 90.896606%)" offset="0.40625" />
            <stop stop-opacity="1" stop-color="rgb(91.314697%, 90.640259%, 90.640259%)" offset="0.4375" />
            <stop stop-opacity="1" stop-color="rgb(91.108704%, 90.383911%, 90.383911%)" offset="0.46875" />
            <stop stop-opacity="1" stop-color="rgb(90.901184%, 90.127563%, 90.127563%)" offset="0.5" />
            <stop stop-opacity="1" stop-color="rgb(90.69519%, 89.871216%, 89.871216%)" offset="0.53125" />
            <stop stop-opacity="1" stop-color="rgb(90.489197%, 89.614868%, 89.614868%)" offset="0.5625" />
            <stop stop-opacity="1" stop-color="rgb(90.283203%, 89.358521%, 89.358521%)" offset="0.59375" />
            <stop stop-opacity="1" stop-color="rgb(90.077209%, 89.102173%, 89.102173%)" offset="0.625" />
            <stop stop-opacity="1" stop-color="rgb(89.871216%, 88.845825%, 88.845825%)" offset="0.65625" />
            <stop stop-opacity="1" stop-color="rgb(89.663696%, 88.589478%, 88.589478%)" offset="0.6875" />
            <stop stop-opacity="1" stop-color="rgb(89.457703%, 88.33313%, 88.33313%)" offset="0.71875" />
            <stop stop-opacity="1" stop-color="rgb(89.251709%, 88.076782%, 88.076782%)" offset="0.75" />
            <stop stop-opacity="1" stop-color="rgb(89.045715%, 87.820435%, 87.820435%)" offset="0.78125" />
            <stop stop-opacity="1" stop-color="rgb(88.839722%, 87.564087%, 87.564087%)" offset="0.8125" />
            <stop stop-opacity="1" stop-color="rgb(88.633728%, 87.309265%, 87.309265%)" offset="0.84375" />
            <stop stop-opacity="1" stop-color="rgb(88.426208%, 87.052917%, 87.052917%)" offset="0.875" />
            <stop stop-opacity="1" stop-color="rgb(88.220215%, 86.79657%, 86.79657%)" offset="0.90625" />
            <stop stop-opacity="1" stop-color="rgb(88.014221%, 86.540222%, 86.540222%)" offset="0.9375" />
            <stop stop-opacity="1" stop-color="rgb(87.808228%, 86.283875%, 86.283875%)" offset="0.96875" />
            <stop stop-opacity="1" stop-color="rgb(87.602234%, 86.027527%, 86.027527%)" offset="1" />
        </linearGradient>
    </defs>
    <g clip-path="url(#53bc262075)"><rect x="-96" fill="url(#4a472caf60)" width="1152" y="-95.999999" height="1151.999986" /></g>
    <path fill="#000000" d="M 349.496094 787.753906 L 408.550781 752.011719 C 419.949219 772.210938 430.3125 789.304688 455.171875 789.304688 C 479.003906 789.304688 494.03125 779.984375 494.03125 743.722656 L 494.03125 497.132812 L 566.554688 497.132812 L 566.554688 744.75 C 566.554688 819.863281 522.523438 854.058594 458.28125 854.058594 C 400.265625 854.058594 366.589844 824.011719 349.492188 787.746094 M 605.949219 779.980469 L 665 745.792969 C 680.546875 771.179688 700.75 789.828125 736.492188 789.828125 C 766.542969 789.828125 785.707031 774.800781 785.707031 754.078125 C 785.707031 729.214844 766.019531 720.40625 732.863281 705.90625 L 714.738281 698.128906 C 662.414062 675.859375 627.707031 647.882812 627.707031 588.824219 C 627.707031 534.429688 669.148438 492.984375 733.90625 492.984375 C 780.011719 492.984375 813.167969 509.046875 836.992188 551.007812 L 780.523438 587.273438 C 768.089844 564.996094 754.625 556.191406 733.902344 556.191406 C 712.660156 556.191406 699.191406 569.660156 699.191406 587.273438 C 699.191406 609.03125 712.660156 617.839844 743.742188 631.3125 L 761.871094 639.078125 C 823.523438 665.503906 858.230469 692.4375 858.230469 753.046875 C 858.230469 818.324219 806.945312 854.066406 738.042969 854.066406 C 670.699219 854.066406 627.183594 821.949219 605.945312 779.984375 " fill-opacity="1" fill-rule="nonzero" />
</svg>