<svg xmlns="http://www.w3.org/2000/svg" xmlns:xlink="http://www.w3.org/1999/xlink" width="1280" zoomAndPan="magnify" viewBox="0 0 960 959.999988" height="1280" preserveAspectRatio="xMidYMid meet" version="1.0"><defs><clipPath id="b75d2490d7"><path d="M 75 0 L 885 0 C 926.421875 0 960 33.578125 960 75 L 960 885 C 960 926.421875 926.421875 960 885 960 L 75 960 C 33.578125 960 0 926.421875 0 885 L 0 75 C 0 33.578125 33.578125 0 75 0 Z M 75 0 " clip-rule="nonzero"/></clipPath><linearGradient x1="0" gradientTransform="matrix(3.75, 0, 0, 3.75, 0.00000575, 0.00002)" y1="128" x2="255.999989" gradientUnits="userSpaceOnUse" y2="128" id="789aa606bd"><stop stop-opacity="1" stop-color="rgb(94.099426%, 94.099426%, 94.099426%)" offset="0"/><stop stop-opacity="1" stop-color="rgb(93.995667%, 93.971252%, 93.971252%)" offset="0.03125"/><stop stop-opacity="1" stop-color="rgb(93.789673%, 93.714905%, 93.714905%)" offset="0.0625"/><stop stop-opacity="1" stop-color="rgb(93.583679%, 93.458557%, 93.458557%)" offset="0.09375"/><stop stop-opacity="1" stop-color="rgb(93.37616%, 93.202209%, 93.202209%)" offset="0.125"/><stop stop-opacity="1" stop-color="rgb(93.170166%, 92.945862%, 92.945862%)" offset="0.15625"/><stop stop-opacity="1" stop-color="rgb(92.964172%, 92.689514%, 92.689514%)" offset="0.1875"/><stop stop-opacity="1" stop-color="rgb(92.758179%, 92.433167%, 92.433167%)" offset="0.21875"/><stop stop-opacity="1" stop-color="rgb(92.552185%, 92.176819%, 92.176819%)" offset="0.25"/><stop stop-opacity="1" stop-color="rgb(92.346191%, 91.920471%, 91.920471%)" offset="0.28125"/><stop stop-opacity="1" stop-color="rgb(92.138672%, 91.664124%, 91.664124%)" offset="0.3125"/><stop stop-opacity="1" stop-color="rgb(91.932678%, 91.409302%, 91.409302%)" offset="0.34375"/><stop stop-opacity="1" stop-color="rgb(91.726685%, 91.152954%, 91.152954%)" offset="0.375"/><stop stop-opacity="1" stop-color="rgb(91.520691%, 90.896606%, 90.896606%)" offset="0.40625"/><stop stop-opacity="1" stop-color="rgb(91.314697%, 90.640259%, 90.640259%)" offset="0.4375"/><stop stop-opacity="1" stop-color="rgb(91.108704%, 90.383911%, 90.383911%)" offset="0.46875"/><stop stop-opacity="1" stop-color="rgb(90.901184%, 90.127563%, 90.127563%)" offset="0.5"/><stop stop-opacity="1" stop-color="rgb(90.69519%, 89.871216%, 89.871216%)" offset="0.53125"/><stop stop-opacity="1" stop-color="rgb(90.489197%, 89.614868%, 89.614868%)" offset="0.5625"/><stop stop-opacity="1" stop-color="rgb(90.283203%, 89.358521%, 89.358521%)" offset="0.59375"/><stop stop-opacity="1" stop-color="rgb(90.077209%, 89.102173%, 89.102173%)" offset="0.625"/><stop stop-opacity="1" stop-color="rgb(89.871216%, 88.845825%, 88.845825%)" offset="0.65625"/><stop stop-opacity="1" stop-color="rgb(89.663696%, 88.589478%, 88.589478%)" offset="0.6875"/><stop stop-opacity="1" stop-color="rgb(89.457703%, 88.33313%, 88.33313%)" offset="0.71875"/><stop stop-opacity="1" stop-color="rgb(89.251709%, 88.076782%, 88.076782%)" offset="0.75"/><stop stop-opacity="1" stop-color="rgb(89.045715%, 87.820435%, 87.820435%)" offset="0.78125"/><stop stop-opacity="1" stop-color="rgb(88.839722%, 87.564087%, 87.564087%)" offset="0.8125"/><stop stop-opacity="1" stop-color="rgb(88.633728%, 87.309265%, 87.309265%)" offset="0.84375"/><stop stop-opacity="1" stop-color="rgb(88.426208%, 87.052917%, 87.052917%)" offset="0.875"/><stop stop-opacity="1" stop-color="rgb(88.220215%, 86.79657%, 86.79657%)" offset="0.90625"/><stop stop-opacity="1" stop-color="rgb(88.014221%, 86.540222%, 86.540222%)" offset="0.9375"/><stop stop-opacity="1" stop-color="rgb(87.808228%, 86.283875%, 86.283875%)" offset="0.96875"/><stop stop-opacity="1" stop-color="rgb(87.602234%, 86.027527%, 86.027527%)" offset="1"/></linearGradient></defs><g clip-path="url(#b75d2490d7)"><rect x="-96" fill="url(#789aa606bd)" width="1152" y="-95.999999" height="1151.999986"/></g><path fill="#000000" d="M 252.421875 802.246094 L 325.882812 757.785156 C 340.058594 782.914062 352.949219 804.175781 383.875 804.175781 C 413.519531 804.175781 432.214844 792.582031 432.214844 747.476562 L 432.214844 440.734375 L 522.425781 440.734375 L 522.425781 748.75 C 522.425781 842.191406 467.65625 884.722656 387.742188 884.722656 C 315.574219 884.722656 273.683594 847.347656 252.417969 802.238281 M 571.429688 792.578125 L 644.882812 750.046875 C 664.222656 781.628906 689.355469 804.824219 733.816406 804.824219 C 771.199219 804.824219 795.035156 786.136719 795.035156 760.359375 C 795.035156 729.425781 770.546875 718.46875 729.304688 700.433594 L 706.753906 690.757812 C 641.667969 663.054688 598.492188 628.257812 598.492188 554.792969 C 598.492188 487.128906 650.042969 435.574219 730.597656 435.574219 C 787.949219 435.574219 829.191406 455.554688 858.832031 507.75 L 788.585938 552.863281 C 773.117188 525.152344 756.371094 514.199219 730.59375 514.199219 C 704.171875 514.199219 687.417969 530.953125 687.417969 552.863281 C 687.417969 579.925781 704.171875 590.886719 742.832031 607.640625 L 765.386719 617.304688 C 842.074219 650.175781 885.246094 683.679688 885.246094 759.070312 C 885.246094 840.273438 821.453125 884.734375 735.746094 884.734375 C 651.976562 884.734375 597.84375 844.78125 571.425781 792.582031 " fill-opacity="1" fill-rule="nonzero"/></svg>