<svg xmlns="http://www.w3.org/2000/svg" xmlns:xlink="http://www.w3.org/1999/xlink" width="1280" zoomAndPan="magnify" viewBox="0 0 960 959.999988" height="1280" preserveAspectRatio="xMidYMid meet" version="1.0"><defs><clipPath id="4ee182bb6f"><path d="M 75 0 L 885 0 C 926.421875 0 960 33.578125 960 75 L 960 885 C 960 926.421875 926.421875 960 885 960 L 75 960 C 33.578125 960 0 926.421875 0 885 L 0 75 C 0 33.578125 33.578125 0 75 0 Z M 75 0 " clip-rule="nonzero"/></clipPath><linearGradient x1="0" gradientTransform="matrix(3.75, 0, 0, 3.75, 0.00000575, 0.00002)" y1="128" x2="255.999989" gradientUnits="userSpaceOnUse" y2="128" id="5e985aa897"><stop stop-opacity="1" stop-color="rgb(12.89978%, 12.89978%, 13.299561%)" offset="0"/><stop stop-opacity="1" stop-color="rgb(13.05542%, 13.027954%, 13.424683%)" offset="0.015625"/><stop stop-opacity="1" stop-color="rgb(13.366699%, 13.285828%, 13.676453%)" offset="0.03125"/><stop stop-opacity="1" stop-color="rgb(13.679504%, 13.543701%, 13.928223%)" offset="0.046875"/><stop stop-opacity="1" stop-color="rgb(13.99231%, 13.801575%, 14.178467%)" offset="0.0625"/><stop stop-opacity="1" stop-color="rgb(14.305115%, 14.057922%, 14.430237%)" offset="0.078125"/><stop stop-opacity="1" stop-color="rgb(14.61792%, 14.315796%, 14.682007%)" offset="0.09375"/><stop stop-opacity="1" stop-color="rgb(14.929199%, 14.573669%, 14.933777%)" offset="0.109375"/><stop stop-opacity="1" stop-color="rgb(15.242004%, 14.831543%, 15.185547%)" offset="0.125"/><stop stop-opacity="1" stop-color="rgb(15.55481%, 15.089417%, 15.437317%)" offset="0.140625"/><stop stop-opacity="1" stop-color="rgb(15.867615%, 15.34729%, 15.689087%)" offset="0.15625"/><stop stop-opacity="1" stop-color="rgb(16.18042%, 15.605164%, 15.939331%)" offset="0.171875"/><stop stop-opacity="1" stop-color="rgb(16.491699%, 15.863037%, 16.191101%)" offset="0.1875"/><stop stop-opacity="1" stop-color="rgb(16.804504%, 16.120911%, 16.442871%)" offset="0.203125"/><stop stop-opacity="1" stop-color="rgb(17.11731%, 16.378784%, 16.694641%)" offset="0.21875"/><stop stop-opacity="1" stop-color="rgb(17.430115%, 16.636658%, 16.946411%)" offset="0.234375"/><stop stop-opacity="1" stop-color="rgb(17.74292%, 16.894531%, 17.198181%)" offset="0.25"/><stop stop-opacity="1" stop-color="rgb(18.054199%, 17.152405%, 17.449951%)" offset="0.265625"/><stop stop-opacity="1" stop-color="rgb(18.367004%, 17.410278%, 17.700195%)" offset="0.28125"/><stop stop-opacity="1" stop-color="rgb(18.67981%, 17.668152%, 17.951965%)" offset="0.296875"/><stop stop-opacity="1" stop-color="rgb(18.992615%, 17.926025%, 18.203735%)" offset="0.3125"/><stop stop-opacity="1" stop-color="rgb(19.30542%, 18.183899%, 18.455505%)" offset="0.328125"/><stop stop-opacity="1" stop-color="rgb(19.616699%, 18.441772%, 18.707275%)" offset="0.34375"/><stop stop-opacity="1" stop-color="rgb(19.929504%, 18.699646%, 18.959045%)" offset="0.359375"/><stop stop-opacity="1" stop-color="rgb(20.24231%, 18.95752%, 19.210815%)" offset="0.375"/><stop stop-opacity="1" stop-color="rgb(20.555115%, 19.215393%, 19.462585%)" offset="0.390625"/><stop stop-opacity="1" stop-color="rgb(20.86792%, 19.473267%, 19.71283%)" offset="0.40625"/><stop stop-opacity="1" stop-color="rgb(21.179199%, 19.73114%, 19.9646%)" offset="0.421875"/><stop stop-opacity="1" stop-color="rgb(21.492004%, 19.989014%, 20.21637%)" offset="0.4375"/><stop stop-opacity="1" stop-color="rgb(21.80481%, 20.246887%, 20.46814%)" offset="0.453125"/><stop stop-opacity="1" stop-color="rgb(22.117615%, 20.503235%, 20.71991%)" offset="0.46875"/><stop stop-opacity="1" stop-color="rgb(22.43042%, 20.761108%, 20.97168%)" offset="0.484375"/><stop stop-opacity="1" stop-color="rgb(22.741699%, 21.018982%, 21.22345%)" offset="0.5"/><stop stop-opacity="1" stop-color="rgb(23.054504%, 21.276855%, 21.473694%)" offset="0.515625"/><stop stop-opacity="1" stop-color="rgb(23.36731%, 21.534729%, 21.725464%)" offset="0.53125"/><stop stop-opacity="1" stop-color="rgb(23.680115%, 21.792603%, 21.977234%)" offset="0.546875"/><stop stop-opacity="1" stop-color="rgb(23.99292%, 22.050476%, 22.229004%)" offset="0.5625"/><stop stop-opacity="1" stop-color="rgb(24.304199%, 22.30835%, 22.480774%)" offset="0.578125"/><stop stop-opacity="1" stop-color="rgb(24.617004%, 22.566223%, 22.732544%)" offset="0.59375"/><stop stop-opacity="1" stop-color="rgb(24.92981%, 22.824097%, 22.984314%)" offset="0.609375"/><stop stop-opacity="1" stop-color="rgb(25.242615%, 23.08197%, 23.234558%)" offset="0.625"/><stop stop-opacity="1" stop-color="rgb(25.55542%, 23.339844%, 23.486328%)" offset="0.640625"/><stop stop-opacity="1" stop-color="rgb(25.866699%, 23.597717%, 23.738098%)" offset="0.65625"/><stop stop-opacity="1" stop-color="rgb(26.179504%, 23.855591%, 23.989868%)" offset="0.671875"/><stop stop-opacity="1" stop-color="rgb(26.49231%, 24.113464%, 24.241638%)" offset="0.6875"/><stop stop-opacity="1" stop-color="rgb(26.805115%, 24.371338%, 24.493408%)" offset="0.703125"/><stop stop-opacity="1" stop-color="rgb(27.11792%, 24.629211%, 24.745178%)" offset="0.71875"/><stop stop-opacity="1" stop-color="rgb(27.429199%, 24.887085%, 24.996948%)" offset="0.734375"/><stop stop-opacity="1" stop-color="rgb(27.742004%, 25.144958%, 25.247192%)" offset="0.75"/><stop stop-opacity="1" stop-color="rgb(28.05481%, 25.402832%, 25.498962%)" offset="0.765625"/><stop stop-opacity="1" stop-color="rgb(28.367615%, 25.660706%, 25.750732%)" offset="0.78125"/><stop stop-opacity="1" stop-color="rgb(28.68042%, 25.918579%, 26.002502%)" offset="0.796875"/><stop stop-opacity="1" stop-color="rgb(28.991699%, 26.176453%, 26.254272%)" offset="0.8125"/><stop stop-opacity="1" stop-color="rgb(29.304504%, 26.434326%, 26.506042%)" offset="0.828125"/><stop stop-opacity="1" stop-color="rgb(29.61731%, 26.6922%, 26.757812%)" offset="0.84375"/><stop stop-opacity="1" stop-color="rgb(29.930115%, 26.948547%, 27.008057%)" offset="0.859375"/><stop stop-opacity="1" stop-color="rgb(30.24292%, 27.206421%, 27.259827%)" offset="0.875"/><stop stop-opacity="1" stop-color="rgb(30.554199%, 27.464294%, 27.511597%)" offset="0.890625"/><stop stop-opacity="1" stop-color="rgb(30.867004%, 27.722168%, 27.763367%)" offset="0.90625"/><stop stop-opacity="1" stop-color="rgb(31.17981%, 27.980042%, 28.015137%)" offset="0.921875"/><stop stop-opacity="1" stop-color="rgb(31.492615%, 28.237915%, 28.266907%)" offset="0.9375"/><stop stop-opacity="1" stop-color="rgb(31.80542%, 28.495789%, 28.518677%)" offset="0.953125"/><stop stop-opacity="1" stop-color="rgb(32.116699%, 28.753662%, 28.768921%)" offset="0.96875"/><stop stop-opacity="1" stop-color="rgb(32.429504%, 29.011536%, 29.020691%)" offset="0.984375"/><stop stop-opacity="1" stop-color="rgb(32.74231%, 29.269409%, 29.272461%)" offset="1"/></linearGradient></defs><g clip-path="url(#4ee182bb6f)"><rect x="-96" fill="url(#5e985aa897)" width="1152" y="-95.999999" height="1151.999986"/></g><path fill="#ffffff" d="M 691.40625 261.496094 L 591.777344 297.621094 L 691.03125 333.550781 L 790.628906 297.457031 Z M 792.886719 299.171875 L 691.0625 336.078125 L 691.0625 453.71875 L 792.886719 416.785156 Z M 587.207031 299.25 L 487.601562 335.347656 L 586.789062 371.316406 L 686.363281 335.183594 Z M 688.71875 336.828125 L 587.960938 373.40625 L 587.960938 492.167969 L 689 455.59375 L 688.71875 455.386719 L 688.71875 336.824219 Z M 485.335938 337.027344 L 485.289062 454.628906 L 585.617188 491.007812 L 585.617188 373.402344 Z M 794.226562 345.386719 C 795.089844 368.996094 795.933594 392.453125 795.242188 417.191406 L 893.746094 381.46875 Z M 896.011719 383.175781 L 795.242188 419.675781 L 795.242188 537.335938 L 896.011719 500.785156 Z M 482.964844 383.695312 L 384.488281 419.382812 L 482.945312 455.089844 L 482.96875 383.6875 Z M 631.617188 396.003906 L 631.625 396.003906 C 639.769531 395.738281 645.679688 401.644531 645.679688 411.15625 C 645.679688 422.867188 636.722656 435.605469 625.675781 439.621094 C 614.628906 443.617188 605.671875 437.378906 605.671875 425.664062 C 605.671875 413.949219 614.636719 401.230469 625.675781 397.210938 C 627.589844 396.492188 629.570312 396.089844 631.617188 396.003906 M 791.824219 420.859375 L 692.113281 457.023438 L 692.113281 574.664062 L 791.824219 538.542969 Z M 382.21875 421.054688 L 382.207031 465.953125 L 382.207031 465.980469 L 382.195312 492.304688 L 480.433594 456.683594 Z M 485.195312 457.445312 L 384.464844 493.976562 L 483.675781 529.957031 L 584.421875 493.421875 Z M 688.722656 458.179688 L 589.023438 494.28125 L 589.023438 611.980469 L 688.722656 575.855469 Z M 379.851562 467.636719 L 281.359375 503.367188 L 379.824219 539.023438 L 379.839844 467.625 Z M 585.609375 495.53125 L 484.847656 532.0625 L 484.847656 649.707031 L 585.605469 613.203125 Z M 382.21875 495.683594 L 382.183594 613.332031 L 482.511719 649.710938 L 482.511719 532.0625 Z M 896.015625 504.46875 L 795.25 540.949219 L 795.25 658.667969 L 896.015625 622.148438 Z M 279.117188 505.042969 L 279.117188 576.332031 L 377.460938 540.660156 L 279.113281 505.042969 Z M 791.816406 542.1875 L 692.109375 578.328125 L 692.109375 696.003906 L 791.816406 659.863281 Z M 379.390625 542.441406 L 281.382812 578.007812 L 379.390625 613.5625 Z M 688.722656 579.511719 L 587.957031 616.074219 L 587.957031 733.691406 L 688.722656 697.152344 Z M 279.117188 579.6875 L 279.117188 697.324219 L 379.390625 733.691406 L 379.390625 616.074219 Z M 585.605469 615.699219 L 484.644531 652.277344 L 484.855469 652.574219 L 484.855469 772.234375 L 585.9375 735.597656 L 585.609375 735.371094 L 585.609375 615.699219 Z M 382.21875 617.011719 L 382.183594 734.6875 L 482.515625 771.015625 L 482.515625 653.402344 Z M 896.015625 625.789062 L 795.25 662.355469 L 795.25 779.9375 L 896.015625 743.445312 Z M 276.757812 626.296875 L 178.269531 662.007812 L 276.761719 697.738281 L 276.761719 626.308594 Z M 791.824219 663.554688 L 692.113281 699.691406 L 692.113281 817.292969 L 794.738281 780.121094 C 768.53125 789.609375 749.472656 796.515625 791.824219 781.15625 Z M 175.988281 663.683594 L 175.953125 781.320312 L 276.28125 817.671875 L 276.28125 700.058594 L 175.988281 663.679688 Z M 688.707031 700.878906 L 589.019531 737.003906 L 589.019531 854.617188 L 688.707031 818.476562 Z M 279.113281 701.042969 L 279.113281 818.683594 C 328.613281 836.59375 506.949219 901.253906 379.386719 854.976562 L 379.386719 737.386719 L 279.113281 701.039062 Z M 379.386719 854.976562 L 379.386719 855 L 279.113281 818.683594 L 482.492188 892.371094 L 482.492188 774.710938 L 382.210938 738.363281 L 382.179688 855.984375 Z M 761.117188 713.371094 L 761.128906 713.371094 C 769.265625 713.109375 775.183594 719.019531 775.183594 728.511719 C 775.183594 740.230469 766.21875 752.96875 755.179688 756.96875 C 744.136719 760.980469 735.175781 754.730469 735.175781 743.023438 C 735.175781 731.300781 744.132812 718.566406 755.179688 714.574219 C 757.09375 713.859375 759.074219 713.460938 761.117188 713.375 Z M 585.59375 738.226562 L 484.847656 774.734375 L 484.847656 892.371094 L 495.628906 888.441406 L 585.59375 855.828125 Z M 585.59375 738.226562 " fill-opacity="1" fill-rule="nonzero"/></svg>