<svg xmlns="http://www.w3.org/2000/svg" xmlns:xlink="http://www.w3.org/1999/xlink" width="1280" zoomAndPan="magnify" viewBox="0 0 960 959.999988" height="1280" preserveAspectRatio="xMidYMid meet" version="1.0">
    <defs>
        <clipPath id="79e94643c1"><path d="M 75 0 L 885 0 C 926.421875 0 960 33.578125 960 75 L 960 885 C 960 926.421875 926.421875 960 885 960 L 75 960 C 33.578125 960 0 926.421875 0 885 L 0 75 C 0 33.578125 33.578125 0 75 0 Z M 75 0 " clip-rule="nonzero" /></clipPath>
        <linearGradient x1="0" gradientTransform="matrix(3.75, 0, 0, 3.75, 0.00000575, 0.00002)" y1="128" x2="255.999989" gradientUnits="userSpaceOnUse" y2="128" id="a943d3a3a0">
            <stop stop-opacity="1" stop-color="rgb(12.89978%, 12.89978%, 13.299561%)" offset="0" />
            <stop stop-opacity="1" stop-color="rgb(13.05542%, 13.027954%, 13.424683%)" offset="0.015625" />
            <stop stop-opacity="1" stop-color="rgb(13.366699%, 13.285828%, 13.676453%)" offset="0.03125" />
            <stop stop-opacity="1" stop-color="rgb(13.679504%, 13.543701%, 13.928223%)" offset="0.046875" />
            <stop stop-opacity="1" stop-color="rgb(13.99231%, 13.801575%, 14.178467%)" offset="0.0625" />
            <stop stop-opacity="1" stop-color="rgb(14.305115%, 14.057922%, 14.430237%)" offset="0.078125" />
            <stop stop-opacity="1" stop-color="rgb(14.61792%, 14.315796%, 14.682007%)" offset="0.09375" />
            <stop stop-opacity="1" stop-color="rgb(14.929199%, 14.573669%, 14.933777%)" offset="0.109375" />
            <stop stop-opacity="1" stop-color="rgb(15.242004%, 14.831543%, 15.185547%)" offset="0.125" />
            <stop stop-opacity="1" stop-color="rgb(15.55481%, 15.089417%, 15.437317%)" offset="0.140625" />
            <stop stop-opacity="1" stop-color="rgb(15.867615%, 15.34729%, 15.689087%)" offset="0.15625" />
            <stop stop-opacity="1" stop-color="rgb(16.18042%, 15.605164%, 15.939331%)" offset="0.171875" />
            <stop stop-opacity="1" stop-color="rgb(16.491699%, 15.863037%, 16.191101%)" offset="0.1875" />
            <stop stop-opacity="1" stop-color="rgb(16.804504%, 16.120911%, 16.442871%)" offset="0.203125" />
            <stop stop-opacity="1" stop-color="rgb(17.11731%, 16.378784%, 16.694641%)" offset="0.21875" />
            <stop stop-opacity="1" stop-color="rgb(17.430115%, 16.636658%, 16.946411%)" offset="0.234375" />
            <stop stop-opacity="1" stop-color="rgb(17.74292%, 16.894531%, 17.198181%)" offset="0.25" />
            <stop stop-opacity="1" stop-color="rgb(18.054199%, 17.152405%, 17.449951%)" offset="0.265625" />
            <stop stop-opacity="1" stop-color="rgb(18.367004%, 17.410278%, 17.700195%)" offset="0.28125" />
            <stop stop-opacity="1" stop-color="rgb(18.67981%, 17.668152%, 17.951965%)" offset="0.296875" />
            <stop stop-opacity="1" stop-color="rgb(18.992615%, 17.926025%, 18.203735%)" offset="0.3125" />
            <stop stop-opacity="1" stop-color="rgb(19.30542%, 18.183899%, 18.455505%)" offset="0.328125" />
            <stop stop-opacity="1" stop-color="rgb(19.616699%, 18.441772%, 18.707275%)" offset="0.34375" />
            <stop stop-opacity="1" stop-color="rgb(19.929504%, 18.699646%, 18.959045%)" offset="0.359375" />
            <stop stop-opacity="1" stop-color="rgb(20.24231%, 18.95752%, 19.210815%)" offset="0.375" />
            <stop stop-opacity="1" stop-color="rgb(20.555115%, 19.215393%, 19.462585%)" offset="0.390625" />
            <stop stop-opacity="1" stop-color="rgb(20.86792%, 19.473267%, 19.71283%)" offset="0.40625" />
            <stop stop-opacity="1" stop-color="rgb(21.179199%, 19.73114%, 19.9646%)" offset="0.421875" />
            <stop stop-opacity="1" stop-color="rgb(21.492004%, 19.989014%, 20.21637%)" offset="0.4375" />
            <stop stop-opacity="1" stop-color="rgb(21.80481%, 20.246887%, 20.46814%)" offset="0.453125" />
            <stop stop-opacity="1" stop-color="rgb(22.117615%, 20.503235%, 20.71991%)" offset="0.46875" />
            <stop stop-opacity="1" stop-color="rgb(22.43042%, 20.761108%, 20.97168%)" offset="0.484375" />
            <stop stop-opacity="1" stop-color="rgb(22.741699%, 21.018982%, 21.22345%)" offset="0.5" />
            <stop stop-opacity="1" stop-color="rgb(23.054504%, 21.276855%, 21.473694%)" offset="0.515625" />
            <stop stop-opacity="1" stop-color="rgb(23.36731%, 21.534729%, 21.725464%)" offset="0.53125" />
            <stop stop-opacity="1" stop-color="rgb(23.680115%, 21.792603%, 21.977234%)" offset="0.546875" />
            <stop stop-opacity="1" stop-color="rgb(23.99292%, 22.050476%, 22.229004%)" offset="0.5625" />
            <stop stop-opacity="1" stop-color="rgb(24.304199%, 22.30835%, 22.480774%)" offset="0.578125" />
            <stop stop-opacity="1" stop-color="rgb(24.617004%, 22.566223%, 22.732544%)" offset="0.59375" />
            <stop stop-opacity="1" stop-color="rgb(24.92981%, 22.824097%, 22.984314%)" offset="0.609375" />
            <stop stop-opacity="1" stop-color="rgb(25.242615%, 23.08197%, 23.234558%)" offset="0.625" />
            <stop stop-opacity="1" stop-color="rgb(25.55542%, 23.339844%, 23.486328%)" offset="0.640625" />
            <stop stop-opacity="1" stop-color="rgb(25.866699%, 23.597717%, 23.738098%)" offset="0.65625" />
            <stop stop-opacity="1" stop-color="rgb(26.179504%, 23.855591%, 23.989868%)" offset="0.671875" />
            <stop stop-opacity="1" stop-color="rgb(26.49231%, 24.113464%, 24.241638%)" offset="0.6875" />
            <stop stop-opacity="1" stop-color="rgb(26.805115%, 24.371338%, 24.493408%)" offset="0.703125" />
            <stop stop-opacity="1" stop-color="rgb(27.11792%, 24.629211%, 24.745178%)" offset="0.71875" />
            <stop stop-opacity="1" stop-color="rgb(27.429199%, 24.887085%, 24.996948%)" offset="0.734375" />
            <stop stop-opacity="1" stop-color="rgb(27.742004%, 25.144958%, 25.247192%)" offset="0.75" />
            <stop stop-opacity="1" stop-color="rgb(28.05481%, 25.402832%, 25.498962%)" offset="0.765625" />
            <stop stop-opacity="1" stop-color="rgb(28.367615%, 25.660706%, 25.750732%)" offset="0.78125" />
            <stop stop-opacity="1" stop-color="rgb(28.68042%, 25.918579%, 26.002502%)" offset="0.796875" />
            <stop stop-opacity="1" stop-color="rgb(28.991699%, 26.176453%, 26.254272%)" offset="0.8125" />
            <stop stop-opacity="1" stop-color="rgb(29.304504%, 26.434326%, 26.506042%)" offset="0.828125" />
            <stop stop-opacity="1" stop-color="rgb(29.61731%, 26.6922%, 26.757812%)" offset="0.84375" />
            <stop stop-opacity="1" stop-color="rgb(29.930115%, 26.948547%, 27.008057%)" offset="0.859375" />
            <stop stop-opacity="1" stop-color="rgb(30.24292%, 27.206421%, 27.259827%)" offset="0.875" />
            <stop stop-opacity="1" stop-color="rgb(30.554199%, 27.464294%, 27.511597%)" offset="0.890625" />
            <stop stop-opacity="1" stop-color="rgb(30.867004%, 27.722168%, 27.763367%)" offset="0.90625" />
            <stop stop-opacity="1" stop-color="rgb(31.17981%, 27.980042%, 28.015137%)" offset="0.921875" />
            <stop stop-opacity="1" stop-color="rgb(31.492615%, 28.237915%, 28.266907%)" offset="0.9375" />
            <stop stop-opacity="1" stop-color="rgb(31.80542%, 28.495789%, 28.518677%)" offset="0.953125" />
            <stop stop-opacity="1" stop-color="rgb(32.116699%, 28.753662%, 28.768921%)" offset="0.96875" />
            <stop stop-opacity="1" stop-color="rgb(32.429504%, 29.011536%, 29.020691%)" offset="0.984375" />
            <stop stop-opacity="1" stop-color="rgb(32.74231%, 29.269409%, 29.272461%)" offset="1" />
        </linearGradient>
    </defs>
    <g clip-path="url(#79e94643c1)"><rect x="-96" fill="url(#a943d3a3a0)" width="1152" y="-95.999999" height="1151.999986" /></g>
    <path fill="#ffffff" d="M 674.492188 325.203125 L 591.914062 355.144531 L 674.179688 384.925781 L 756.730469 355.007812 Z M 758.605469 356.433594 L 674.207031 387.019531 L 674.207031 484.527344 L 758.605469 453.914062 Z M 588.125 356.496094 L 505.566406 386.414062 L 587.777344 416.230469 L 670.308594 386.277344 Z M 672.261719 387.644531 L 588.75 417.960938 L 588.75 516.398438 L 672.496094 486.082031 L 672.261719 485.910156 L 672.261719 387.640625 Z M 503.691406 387.808594 L 503.652344 485.28125 L 586.808594 515.433594 L 586.808594 417.957031 Z M 759.710938 394.734375 C 760.429688 414.304688 761.128906 433.75 760.554688 454.253906 L 842.199219 424.644531 Z M 844.078125 426.058594 L 760.554688 456.3125 L 760.554688 553.832031 L 844.078125 523.539062 Z M 501.722656 426.488281 L 420.101562 456.070312 L 501.710938 485.664062 L 501.726562 426.484375 Z M 624.933594 436.691406 L 624.941406 436.691406 C 631.691406 436.472656 636.589844 441.367188 636.589844 449.25 C 636.589844 458.953125 629.167969 469.515625 620.011719 472.839844 C 610.855469 476.15625 603.429688 470.984375 603.429688 461.273438 C 603.429688 451.5625 610.859375 441.023438 620.011719 437.691406 C 621.597656 437.097656 623.238281 436.761719 624.933594 436.691406 M 757.722656 457.292969 L 675.078125 487.269531 L 675.078125 584.773438 L 757.722656 554.832031 Z M 418.222656 457.453125 L 418.210938 494.667969 L 418.210938 494.691406 L 418.203125 516.507812 L 499.625 486.984375 Z M 503.574219 487.613281 L 420.085938 517.894531 L 502.316406 547.71875 L 585.816406 517.433594 Z M 672.265625 488.226562 L 589.632812 518.148438 L 589.632812 615.699219 L 672.265625 585.757812 Z M 416.257812 496.0625 L 334.625 525.679688 L 416.234375 555.230469 L 416.25 496.054688 Z M 586.804688 519.183594 L 503.285156 549.464844 L 503.285156 646.96875 L 586.796875 616.714844 Z M 418.222656 519.3125 L 418.191406 616.824219 L 501.347656 646.976562 L 501.347656 549.464844 Z M 844.082031 526.589844 L 760.5625 556.828125 L 760.5625 654.398438 L 844.082031 624.128906 Z M 332.765625 527.070312 L 332.765625 586.152344 L 414.277344 556.585938 L 332.761719 527.070312 Z M 757.71875 557.855469 L 675.074219 587.808594 L 675.074219 685.34375 L 757.71875 655.390625 Z M 415.878906 558.066406 L 334.644531 587.542969 L 415.878906 617.015625 Z M 672.265625 588.792969 L 588.746094 619.09375 L 588.746094 716.582031 L 672.265625 686.296875 Z M 332.765625 588.9375 L 332.765625 686.4375 L 415.878906 716.582031 L 415.878906 619.09375 Z M 586.796875 618.785156 L 503.117188 649.101562 L 503.289062 649.347656 L 503.289062 748.527344 L 587.074219 718.164062 L 586.804688 717.976562 L 586.804688 618.785156 Z M 418.222656 619.871094 L 418.191406 717.40625 L 501.351562 747.519531 L 501.351562 650.035156 Z M 844.082031 627.148438 L 760.5625 657.453125 L 760.5625 754.914062 L 844.082031 724.667969 Z M 330.808594 627.570312 L 249.179688 657.167969 L 330.8125 686.78125 L 330.8125 627.578125 Z M 757.722656 658.449219 L 675.078125 688.398438 L 675.078125 785.875 L 760.136719 755.0625 C 738.414062 762.929688 722.617188 768.65625 757.722656 755.921875 Z M 247.289062 658.558594 L 247.261719 756.058594 L 330.414062 786.1875 L 330.414062 688.703125 L 247.289062 658.550781 Z M 672.253906 689.386719 L 589.628906 719.328125 L 589.628906 816.808594 L 672.253906 786.855469 Z M 332.761719 689.523438 L 332.761719 787.027344 C 373.792969 801.871094 521.601562 855.464844 415.875 817.109375 L 415.875 719.644531 L 332.761719 689.515625 Z M 415.875 817.109375 L 415.875 817.128906 L 332.761719 787.027344 L 501.335938 848.101562 L 501.335938 750.582031 L 418.214844 720.453125 L 418.1875 817.945312 Z M 732.273438 699.738281 L 732.28125 699.738281 C 739.023438 699.523438 743.929688 704.421875 743.929688 712.289062 C 743.929688 722 736.5 732.5625 727.347656 735.875 C 718.195312 739.203125 710.769531 734.019531 710.769531 724.316406 C 710.769531 714.601562 718.191406 704.046875 727.347656 700.738281 C 728.9375 700.144531 730.578125 699.8125 732.273438 699.742188 Z M 586.789062 720.339844 L 503.285156 750.601562 L 503.285156 848.101562 L 512.222656 844.84375 L 586.789062 817.8125 Z M 586.789062 720.339844 " fill-opacity="1" fill-rule="nonzero" />
</svg>