<svg xmlns="http://www.w3.org/2000/svg" xmlns:xlink="http://www.w3.org/1999/xlink" width="1280" zoomAndPan="magnify" viewBox="0 0 960 959.999988" height="1280" preserveAspectRatio="xMidYMid meet" version="1.0">
    <defs>
        <clipPath id="6535c0014d"><path d="M 75 0 L 885 0 C 926.421875 0 960 33.578125 960 75 L 960 885 C 960 926.421875 926.421875 960 885 960 L 75 960 C 33.578125 960 0 926.421875 0 885 L 0 75 C 0 33.578125 33.578125 0 75 0 Z M 75 0 " clip-rule="nonzero" /></clipPath>
        <linearGradient x1="0" gradientTransform="matrix(3.75, 0, 0, 3.75, 0.00000575, 0.00002)" y1="128" x2="255.999989" gradientUnits="userSpaceOnUse" y2="128" id="410102cbef">
            <stop stop-opacity="1" stop-color="rgb(94.099426%, 94.099426%, 94.099426%)" offset="0" />
            <stop stop-opacity="1" stop-color="rgb(93.995667%, 93.971252%, 93.971252%)" offset="0.03125" />
            <stop stop-opacity="1" stop-color="rgb(93.789673%, 93.714905%, 93.714905%)" offset="0.0625" />
            <stop stop-opacity="1" stop-color="rgb(93.583679%, 93.458557%, 93.458557%)" offset="0.09375" />
            <stop stop-opacity="1" stop-color="rgb(93.37616%, 93.202209%, 93.202209%)" offset="0.125" />
            <stop stop-opacity="1" stop-color="rgb(93.170166%, 92.945862%, 92.945862%)" offset="0.15625" />
            <stop stop-opacity="1" stop-color="rgb(92.964172%, 92.689514%, 92.689514%)" offset="0.1875" />
            <stop stop-opacity="1" stop-color="rgb(92.758179%, 92.433167%, 92.433167%)" offset="0.21875" />
            <stop stop-opacity="1" stop-color="rgb(92.552185%, 92.176819%, 92.176819%)" offset="0.25" />
            <stop stop-opacity="1" stop-color="rgb(92.346191%, 91.920471%, 91.920471%)" offset="0.28125" />
            <stop stop-opacity="1" stop-color="rgb(92.138672%, 91.664124%, 91.664124%)" offset="0.3125" />
            <stop stop-opacity="1" stop-color="rgb(91.932678%, 91.409302%, 91.409302%)" offset="0.34375" />
            <stop stop-opacity="1" stop-color="rgb(91.726685%, 91.152954%, 91.152954%)" offset="0.375" />
            <stop stop-opacity="1" stop-color="rgb(91.520691%, 90.896606%, 90.896606%)" offset="0.40625" />
            <stop stop-opacity="1" stop-color="rgb(91.314697%, 90.640259%, 90.640259%)" offset="0.4375" />
            <stop stop-opacity="1" stop-color="rgb(91.108704%, 90.383911%, 90.383911%)" offset="0.46875" />
            <stop stop-opacity="1" stop-color="rgb(90.901184%, 90.127563%, 90.127563%)" offset="0.5" />
            <stop stop-opacity="1" stop-color="rgb(90.69519%, 89.871216%, 89.871216%)" offset="0.53125" />
            <stop stop-opacity="1" stop-color="rgb(90.489197%, 89.614868%, 89.614868%)" offset="0.5625" />
            <stop stop-opacity="1" stop-color="rgb(90.283203%, 89.358521%, 89.358521%)" offset="0.59375" />
            <stop stop-opacity="1" stop-color="rgb(90.077209%, 89.102173%, 89.102173%)" offset="0.625" />
            <stop stop-opacity="1" stop-color="rgb(89.871216%, 88.845825%, 88.845825%)" offset="0.65625" />
            <stop stop-opacity="1" stop-color="rgb(89.663696%, 88.589478%, 88.589478%)" offset="0.6875" />
            <stop stop-opacity="1" stop-color="rgb(89.457703%, 88.33313%, 88.33313%)" offset="0.71875" />
            <stop stop-opacity="1" stop-color="rgb(89.251709%, 88.076782%, 88.076782%)" offset="0.75" />
            <stop stop-opacity="1" stop-color="rgb(89.045715%, 87.820435%, 87.820435%)" offset="0.78125" />
            <stop stop-opacity="1" stop-color="rgb(88.839722%, 87.564087%, 87.564087%)" offset="0.8125" />
            <stop stop-opacity="1" stop-color="rgb(88.633728%, 87.309265%, 87.309265%)" offset="0.84375" />
            <stop stop-opacity="1" stop-color="rgb(88.426208%, 87.052917%, 87.052917%)" offset="0.875" />
            <stop stop-opacity="1" stop-color="rgb(88.220215%, 86.79657%, 86.79657%)" offset="0.90625" />
            <stop stop-opacity="1" stop-color="rgb(88.014221%, 86.540222%, 86.540222%)" offset="0.9375" />
            <stop stop-opacity="1" stop-color="rgb(87.808228%, 86.283875%, 86.283875%)" offset="0.96875" />
            <stop stop-opacity="1" stop-color="rgb(87.602234%, 86.027527%, 86.027527%)" offset="1" />
        </linearGradient>
    </defs>
    <g clip-path="url(#6535c0014d)"><rect x="-96" fill="url(#410102cbef)" width="1152" y="-95.999999" height="1151.999986" /></g>
    <path fill="#000000" d="M 674.523438 325.207031 L 591.941406 355.152344 L 674.214844 384.933594 L 756.769531 355.015625 Z M 758.644531 356.4375 L 674.238281 387.027344 L 674.238281 484.542969 L 758.644531 453.925781 Z M 588.152344 356.503906 L 505.585938 386.421875 L 587.804688 416.238281 L 670.34375 386.285156 Z M 672.296875 387.652344 L 588.777344 417.972656 L 588.777344 516.414062 L 672.53125 486.097656 L 672.296875 485.925781 L 672.296875 387.648438 Z M 503.710938 387.816406 L 503.671875 485.296875 L 586.835938 515.453125 L 586.835938 417.96875 Z M 759.75 394.746094 C 760.46875 414.316406 761.167969 433.761719 760.597656 454.265625 L 842.246094 424.65625 Z M 844.125 426.066406 L 760.597656 456.324219 L 760.597656 553.855469 L 844.125 523.558594 Z M 501.742188 426.5 L 420.117188 456.082031 L 501.730469 485.679688 L 501.75 426.496094 Z M 624.964844 436.703125 L 624.972656 436.703125 C 631.722656 436.480469 636.621094 441.378906 636.621094 449.261719 C 636.621094 458.96875 629.195312 469.527344 620.039062 472.855469 C 610.882812 476.167969 603.457031 470.996094 603.457031 461.285156 C 603.457031 451.578125 610.886719 441.035156 620.039062 437.703125 C 621.628906 437.109375 623.269531 436.773438 624.964844 436.703125 M 757.761719 457.308594 L 675.113281 487.285156 L 675.113281 584.796875 L 757.761719 554.855469 Z M 418.234375 457.464844 L 418.226562 494.683594 L 418.226562 494.707031 L 418.214844 516.527344 L 499.644531 487 Z M 503.59375 487.628906 L 420.097656 517.914062 L 502.335938 547.738281 L 585.84375 517.453125 Z M 672.300781 488.242188 L 589.660156 518.164062 L 589.660156 615.726562 L 672.300781 585.78125 Z M 416.273438 496.078125 L 334.632812 525.699219 L 416.25 555.253906 L 416.261719 496.070312 Z M 586.828125 519.203125 L 503.304688 549.484375 L 503.304688 647 L 586.824219 616.742188 Z M 418.234375 519.328125 L 418.207031 616.847656 L 501.367188 647.003906 L 501.367188 549.484375 Z M 844.128906 526.609375 L 760.601562 556.847656 L 760.601562 654.429688 L 844.128906 624.15625 Z M 332.773438 527.085938 L 332.773438 586.175781 L 414.292969 556.609375 L 332.769531 527.085938 Z M 757.757812 557.875 L 675.105469 587.832031 L 675.105469 685.375 L 757.757812 655.417969 Z M 415.894531 558.085938 L 334.652344 587.566406 L 415.894531 617.039062 Z M 672.300781 588.816406 L 588.773438 619.121094 L 588.773438 716.613281 L 672.300781 686.328125 Z M 332.773438 588.960938 L 332.773438 686.46875 L 415.894531 716.613281 L 415.894531 619.121094 Z M 586.824219 618.808594 L 503.136719 649.128906 L 503.3125 649.378906 L 503.3125 748.5625 L 587.101562 718.195312 L 586.828125 718.007812 L 586.828125 618.808594 Z M 418.234375 619.898438 L 418.207031 717.441406 L 501.371094 747.554688 L 501.371094 650.0625 Z M 844.128906 627.171875 L 760.601562 657.484375 L 760.601562 754.949219 L 844.128906 724.703125 Z M 330.816406 627.597656 L 249.179688 657.195312 L 330.820312 686.8125 L 330.820312 627.605469 Z M 757.761719 658.476562 L 675.113281 688.429688 L 675.113281 785.914062 L 760.179688 755.101562 C 738.453125 762.964844 722.65625 768.691406 757.761719 755.960938 Z M 247.289062 658.585938 L 247.261719 756.09375 L 330.421875 786.226562 L 330.421875 688.738281 L 247.289062 658.582031 Z M 672.285156 689.417969 L 589.65625 719.359375 L 589.65625 816.851562 L 672.285156 786.894531 Z M 332.769531 689.554688 L 332.769531 787.066406 C 373.800781 801.910156 521.625 855.511719 415.886719 817.152344 L 415.886719 719.679688 L 332.769531 689.546875 Z M 415.886719 817.152344 L 415.886719 817.171875 L 332.769531 787.066406 L 501.355469 848.144531 L 501.355469 750.617188 L 418.230469 720.488281 L 418.203125 817.988281 Z M 732.308594 699.769531 L 732.320312 699.769531 C 739.0625 699.554688 743.96875 704.453125 743.96875 712.320312 C 743.96875 722.035156 736.539062 732.597656 727.386719 735.910156 C 718.234375 739.238281 710.804688 734.054688 710.804688 724.351562 C 710.804688 714.632812 718.230469 704.078125 727.386719 700.769531 C 728.972656 700.175781 730.617188 699.84375 732.308594 699.773438 Z M 586.816406 720.375 L 503.304688 750.636719 L 503.304688 848.144531 L 512.242188 844.890625 L 586.816406 817.855469 Z M 586.816406 720.375 " fill-opacity="1" fill-rule="nonzero" />
</svg>