<svg xmlns="http://www.w3.org/2000/svg" xmlns:xlink="http://www.w3.org/1999/xlink" width="1280" zoomAndPan="magnify" viewBox="0 0 960 959.999988" height="1280" preserveAspectRatio="xMidYMid meet" version="1.0"><defs><clipPath id="a066df243b"><path d="M 75 0 L 885 0 C 926.421875 0 960 33.578125 960 75 L 960 885 C 960 926.421875 926.421875 960 885 960 L 75 960 C 33.578125 960 0 926.421875 0 885 L 0 75 C 0 33.578125 33.578125 0 75 0 Z M 75 0 " clip-rule="nonzero"/></clipPath><linearGradient x1="0" gradientTransform="matrix(3.75, 0, 0, 3.75, 0.00000575, 0.00002)" y1="128" x2="255.999989" gradientUnits="userSpaceOnUse" y2="128" id="549effe02d"><stop stop-opacity="1" stop-color="rgb(94.099426%, 94.099426%, 94.099426%)" offset="0"/><stop stop-opacity="1" stop-color="rgb(93.995667%, 93.971252%, 93.971252%)" offset="0.03125"/><stop stop-opacity="1" stop-color="rgb(93.789673%, 93.714905%, 93.714905%)" offset="0.0625"/><stop stop-opacity="1" stop-color="rgb(93.583679%, 93.458557%, 93.458557%)" offset="0.09375"/><stop stop-opacity="1" stop-color="rgb(93.37616%, 93.202209%, 93.202209%)" offset="0.125"/><stop stop-opacity="1" stop-color="rgb(93.170166%, 92.945862%, 92.945862%)" offset="0.15625"/><stop stop-opacity="1" stop-color="rgb(92.964172%, 92.689514%, 92.689514%)" offset="0.1875"/><stop stop-opacity="1" stop-color="rgb(92.758179%, 92.433167%, 92.433167%)" offset="0.21875"/><stop stop-opacity="1" stop-color="rgb(92.552185%, 92.176819%, 92.176819%)" offset="0.25"/><stop stop-opacity="1" stop-color="rgb(92.346191%, 91.920471%, 91.920471%)" offset="0.28125"/><stop stop-opacity="1" stop-color="rgb(92.138672%, 91.664124%, 91.664124%)" offset="0.3125"/><stop stop-opacity="1" stop-color="rgb(91.932678%, 91.409302%, 91.409302%)" offset="0.34375"/><stop stop-opacity="1" stop-color="rgb(91.726685%, 91.152954%, 91.152954%)" offset="0.375"/><stop stop-opacity="1" stop-color="rgb(91.520691%, 90.896606%, 90.896606%)" offset="0.40625"/><stop stop-opacity="1" stop-color="rgb(91.314697%, 90.640259%, 90.640259%)" offset="0.4375"/><stop stop-opacity="1" stop-color="rgb(91.108704%, 90.383911%, 90.383911%)" offset="0.46875"/><stop stop-opacity="1" stop-color="rgb(90.901184%, 90.127563%, 90.127563%)" offset="0.5"/><stop stop-opacity="1" stop-color="rgb(90.69519%, 89.871216%, 89.871216%)" offset="0.53125"/><stop stop-opacity="1" stop-color="rgb(90.489197%, 89.614868%, 89.614868%)" offset="0.5625"/><stop stop-opacity="1" stop-color="rgb(90.283203%, 89.358521%, 89.358521%)" offset="0.59375"/><stop stop-opacity="1" stop-color="rgb(90.077209%, 89.102173%, 89.102173%)" offset="0.625"/><stop stop-opacity="1" stop-color="rgb(89.871216%, 88.845825%, 88.845825%)" offset="0.65625"/><stop stop-opacity="1" stop-color="rgb(89.663696%, 88.589478%, 88.589478%)" offset="0.6875"/><stop stop-opacity="1" stop-color="rgb(89.457703%, 88.33313%, 88.33313%)" offset="0.71875"/><stop stop-opacity="1" stop-color="rgb(89.251709%, 88.076782%, 88.076782%)" offset="0.75"/><stop stop-opacity="1" stop-color="rgb(89.045715%, 87.820435%, 87.820435%)" offset="0.78125"/><stop stop-opacity="1" stop-color="rgb(88.839722%, 87.564087%, 87.564087%)" offset="0.8125"/><stop stop-opacity="1" stop-color="rgb(88.633728%, 87.309265%, 87.309265%)" offset="0.84375"/><stop stop-opacity="1" stop-color="rgb(88.426208%, 87.052917%, 87.052917%)" offset="0.875"/><stop stop-opacity="1" stop-color="rgb(88.220215%, 86.79657%, 86.79657%)" offset="0.90625"/><stop stop-opacity="1" stop-color="rgb(88.014221%, 86.540222%, 86.540222%)" offset="0.9375"/><stop stop-opacity="1" stop-color="rgb(87.808228%, 86.283875%, 86.283875%)" offset="0.96875"/><stop stop-opacity="1" stop-color="rgb(87.602234%, 86.027527%, 86.027527%)" offset="1"/></linearGradient></defs><g clip-path="url(#a066df243b)"><rect x="-96" fill="url(#549effe02d)" width="1152" y="-95.999999" height="1151.999986"/></g><path fill="#000000" d="M 691.230469 261.480469 L 591.636719 297.59375 L 690.859375 333.511719 L 790.417969 297.429688 Z M 792.679688 299.144531 L 690.886719 336.035156 L 690.886719 453.636719 L 792.679688 416.714844 Z M 587.066406 299.222656 L 487.492188 335.304688 L 586.648438 371.265625 L 686.1875 335.140625 Z M 688.542969 336.789062 L 587.820312 373.351562 L 587.820312 492.074219 L 688.824219 455.511719 L 688.542969 455.308594 L 688.542969 336.78125 Z M 485.230469 336.988281 L 485.183594 454.546875 L 585.476562 490.914062 L 585.476562 373.347656 Z M 794.015625 345.339844 C 794.878906 368.945312 795.722656 392.394531 795.03125 417.125 L 893.503906 381.414062 Z M 895.765625 383.117188 L 795.03125 419.609375 L 795.03125 537.226562 L 895.765625 500.691406 Z M 482.859375 383.636719 L 384.417969 419.3125 L 482.839844 455.007812 L 482.863281 383.632812 Z M 631.460938 395.941406 L 631.472656 395.941406 C 639.609375 395.675781 645.519531 401.582031 645.519531 411.089844 C 645.519531 422.792969 636.566406 435.53125 625.523438 439.542969 C 614.480469 443.539062 605.523438 437.300781 605.523438 425.589844 C 605.523438 413.878906 614.484375 401.167969 625.523438 397.148438 C 627.4375 396.429688 629.417969 396.027344 631.460938 395.941406 M 791.613281 420.789062 L 691.9375 456.941406 L 691.9375 574.542969 L 791.613281 538.433594 Z M 382.148438 420.984375 L 382.136719 465.867188 L 382.136719 465.898438 L 382.125 492.210938 L 480.328125 456.601562 Z M 485.089844 457.359375 L 384.394531 493.878906 L 483.570312 529.851562 L 584.28125 493.324219 Z M 688.546875 458.097656 L 588.882812 494.1875 L 588.882812 611.84375 L 688.546875 575.730469 Z M 379.78125 467.550781 L 281.324219 503.269531 L 379.753906 538.914062 L 379.769531 467.539062 Z M 585.472656 495.4375 L 484.742188 531.957031 L 484.742188 649.558594 L 585.464844 613.066406 Z M 382.148438 495.589844 L 382.113281 613.195312 L 482.40625 649.5625 L 482.40625 531.957031 Z M 895.773438 504.367188 L 795.039062 540.835938 L 795.039062 658.515625 L 895.773438 622.007812 Z M 279.082031 504.945312 L 279.082031 576.207031 L 377.390625 540.546875 L 279.074219 504.945312 Z M 791.609375 542.078125 L 691.933594 578.207031 L 691.933594 695.839844 L 791.609375 659.710938 Z M 379.324219 542.332031 L 281.34375 577.882812 L 379.324219 613.429688 Z M 688.546875 579.386719 L 587.816406 615.9375 L 587.816406 733.515625 L 688.546875 696.988281 Z M 279.082031 579.5625 L 279.082031 697.160156 L 379.324219 733.515625 L 379.324219 615.9375 Z M 585.464844 615.5625 L 484.539062 652.128906 L 484.75 652.425781 L 484.75 772.042969 L 585.800781 735.421875 L 585.472656 735.195312 L 585.472656 615.5625 Z M 382.148438 616.875 L 382.113281 734.511719 L 482.410156 770.828125 L 482.410156 653.253906 Z M 895.773438 625.648438 L 795.039062 662.203125 L 795.039062 779.746094 L 895.773438 743.265625 Z M 276.722656 626.160156 L 178.269531 661.855469 L 276.726562 697.574219 L 276.726562 626.167969 Z M 791.613281 663.402344 L 691.9375 699.527344 L 691.9375 817.085938 L 794.527344 779.929688 C 768.328125 789.414062 749.277344 796.320312 791.613281 780.964844 Z M 175.988281 663.53125 L 175.953125 781.128906 L 276.246094 817.464844 L 276.246094 699.894531 L 175.988281 663.527344 Z M 688.53125 700.714844 L 588.878906 736.824219 L 588.878906 854.398438 L 688.53125 818.269531 Z M 279.074219 700.878906 L 279.074219 818.480469 C 328.5625 836.382812 506.835938 901.019531 379.316406 854.761719 L 379.316406 737.210938 L 279.074219 700.871094 Z M 379.316406 854.761719 L 379.316406 854.785156 L 279.074219 818.480469 L 482.386719 892.140625 L 482.386719 774.523438 L 382.140625 738.183594 L 382.105469 855.769531 Z M 760.917969 713.199219 L 760.929688 713.199219 C 769.0625 712.941406 774.980469 718.847656 774.980469 728.335938 C 774.980469 740.050781 766.019531 752.789062 754.980469 756.785156 C 743.945312 760.796875 734.984375 754.546875 734.984375 742.84375 C 734.984375 731.125 743.9375 718.394531 754.980469 714.40625 C 756.898438 713.691406 758.875 713.289062 760.917969 713.207031 Z M 585.453125 738.046875 L 484.742188 774.546875 L 484.742188 892.140625 L 495.519531 888.210938 L 585.453125 855.609375 Z M 585.453125 738.046875 " fill-opacity="1" fill-rule="nonzero"/></svg>