<svg xmlns="http://www.w3.org/2000/svg" xmlns:xlink="http://www.w3.org/1999/xlink" width="1280" zoomAndPan="magnify" viewBox="0 0 960 959.999988" height="1280" preserveAspectRatio="xMidYMid meet" version="1.0"><defs><clipPath id="bcc058c557"><path d="M 75 0 L 885 0 C 926.421875 0 960 33.578125 960 75 L 960 885 C 960 926.421875 926.421875 960 885 960 L 75 960 C 33.578125 960 0 926.421875 0 885 L 0 75 C 0 33.578125 33.578125 0 75 0 Z M 75 0 " clip-rule="nonzero"/></clipPath><linearGradient x1="0" gradientTransform="matrix(3.75, 0, 0, 3.75, 0.00000575, 0.00002)" y1="128" x2="255.999989" gradientUnits="userSpaceOnUse" y2="128" id="9d36dc4411"><stop stop-opacity="1" stop-color="rgb(94.099426%, 94.099426%, 94.099426%)" offset="0"/><stop stop-opacity="1" stop-color="rgb(93.995667%, 93.971252%, 93.971252%)" offset="0.03125"/><stop stop-opacity="1" stop-color="rgb(93.789673%, 93.714905%, 93.714905%)" offset="0.0625"/><stop stop-opacity="1" stop-color="rgb(93.583679%, 93.458557%, 93.458557%)" offset="0.09375"/><stop stop-opacity="1" stop-color="rgb(93.37616%, 93.202209%, 93.202209%)" offset="0.125"/><stop stop-opacity="1" stop-color="rgb(93.170166%, 92.945862%, 92.945862%)" offset="0.15625"/><stop stop-opacity="1" stop-color="rgb(92.964172%, 92.689514%, 92.689514%)" offset="0.1875"/><stop stop-opacity="1" stop-color="rgb(92.758179%, 92.433167%, 92.433167%)" offset="0.21875"/><stop stop-opacity="1" stop-color="rgb(92.552185%, 92.176819%, 92.176819%)" offset="0.25"/><stop stop-opacity="1" stop-color="rgb(92.346191%, 91.920471%, 91.920471%)" offset="0.28125"/><stop stop-opacity="1" stop-color="rgb(92.138672%, 91.664124%, 91.664124%)" offset="0.3125"/><stop stop-opacity="1" stop-color="rgb(91.932678%, 91.409302%, 91.409302%)" offset="0.34375"/><stop stop-opacity="1" stop-color="rgb(91.726685%, 91.152954%, 91.152954%)" offset="0.375"/><stop stop-opacity="1" stop-color="rgb(91.520691%, 90.896606%, 90.896606%)" offset="0.40625"/><stop stop-opacity="1" stop-color="rgb(91.314697%, 90.640259%, 90.640259%)" offset="0.4375"/><stop stop-opacity="1" stop-color="rgb(91.108704%, 90.383911%, 90.383911%)" offset="0.46875"/><stop stop-opacity="1" stop-color="rgb(90.901184%, 90.127563%, 90.127563%)" offset="0.5"/><stop stop-opacity="1" stop-color="rgb(90.69519%, 89.871216%, 89.871216%)" offset="0.53125"/><stop stop-opacity="1" stop-color="rgb(90.489197%, 89.614868%, 89.614868%)" offset="0.5625"/><stop stop-opacity="1" stop-color="rgb(90.283203%, 89.358521%, 89.358521%)" offset="0.59375"/><stop stop-opacity="1" stop-color="rgb(90.077209%, 89.102173%, 89.102173%)" offset="0.625"/><stop stop-opacity="1" stop-color="rgb(89.871216%, 88.845825%, 88.845825%)" offset="0.65625"/><stop stop-opacity="1" stop-color="rgb(89.663696%, 88.589478%, 88.589478%)" offset="0.6875"/><stop stop-opacity="1" stop-color="rgb(89.457703%, 88.33313%, 88.33313%)" offset="0.71875"/><stop stop-opacity="1" stop-color="rgb(89.251709%, 88.076782%, 88.076782%)" offset="0.75"/><stop stop-opacity="1" stop-color="rgb(89.045715%, 87.820435%, 87.820435%)" offset="0.78125"/><stop stop-opacity="1" stop-color="rgb(88.839722%, 87.564087%, 87.564087%)" offset="0.8125"/><stop stop-opacity="1" stop-color="rgb(88.633728%, 87.309265%, 87.309265%)" offset="0.84375"/><stop stop-opacity="1" stop-color="rgb(88.426208%, 87.052917%, 87.052917%)" offset="0.875"/><stop stop-opacity="1" stop-color="rgb(88.220215%, 86.79657%, 86.79657%)" offset="0.90625"/><stop stop-opacity="1" stop-color="rgb(88.014221%, 86.540222%, 86.540222%)" offset="0.9375"/><stop stop-opacity="1" stop-color="rgb(87.808228%, 86.283875%, 86.283875%)" offset="0.96875"/><stop stop-opacity="1" stop-color="rgb(87.602234%, 86.027527%, 86.027527%)" offset="1"/></linearGradient><clipPath id="6fdd1ee9bf"><path d="M 109.347656 109.347656 L 850.347656 109.347656 L 850.347656 850.347656 L 109.347656 850.347656 Z M 109.347656 109.347656 " clip-rule="nonzero"/></clipPath></defs><g clip-path="url(#bcc058c557)"><rect x="-96" fill="url(#9d36dc4411)" width="1152" y="-95.999999" height="1151.999986"/></g><g clip-path="url(#6fdd1ee9bf)"><path fill="#000000" d="M 551.144531 114.902344 L 579 121.039062 L 601.53125 129.121094 L 619.757812 138.382812 L 633.628906 148.296875 L 644.117188 158.785156 L 651.828125 169.25 L 656.761719 179.417969 L 659.792969 188.679688 L 661.113281 196.644531 L 661.738281 202.921875 L 661.367188 206.902344 L 661.367188 371.777344 L 659.792969 391.203125 L 655.8125 408.222656 L 649.304688 422.464844 L 641.339844 434.160156 L 632.074219 443.675781 L 621.957031 451.386719 L 611.097656 457.316406 L 600.234375 461.644531 L 590.117188 464.792969 L 580.855469 466.832031 L 572.886719 468.152344 L 566.382812 468.777344 L 381.964844 468.777344 L 360.753906 470.328125 L 342.53125 474.566406 L 327.085938 481.445312 L 314.417969 489.757812 L 304.160156 499.667969 L 295.824219 510.390625 L 289.6875 521.621094 L 285.078125 532.945312 L 281.953125 543.78125 L 279.800781 553.691406 L 278.574219 562.003906 L 277.992188 568.511719 L 277.992188 662.964844 L 209.105469 662.964844 L 202.621094 661.96875 L 193.914062 659.816406 L 184.164062 656.203125 L 173.304688 650.648438 L 162.210938 642.589844 L 151.121094 631.472656 L 140.261719 617.234375 L 130.371094 599.007812 L 121.664062 576.476562 L 115.273438 549.339844 L 110.945312 516.894531 L 109.371094 478.921875 L 111.199219 441.292969 L 116.132812 409.21875 L 123.609375 382.335938 L 133.5 360.382812 L 144.613281 342.785156 L 156.910156 329.261719 L 169.945312 319.003906 L 182.84375 311.664062 L 195.257812 306.730469 L 206.371094 303.582031 L 216.257812 302.007812 L 223.597656 301.75 L 228.53125 301.75 L 230.476562 302.007812 L 482.300781 302.007812 L 482.300781 276.441406 L 301.984375 276.441406 L 301.730469 191.527344 L 301.148438 180.066406 L 302.722656 169.574219 L 306.082031 160.058594 L 311.269531 151.351562 L 318.980469 143.410156 L 328.636719 136.277344 L 340.308594 130.140625 L 353.945312 124.46875 L 369.621094 119.90625 L 387.59375 116.175781 L 407.226562 113.144531 L 429.179688 111.222656 L 452.960938 110.019531 L 478.898438 109.394531 L 518.078125 110.96875 Z M 356.726562 176.035156 L 349.59375 186.15625 L 347.070312 198.820312 L 349.59375 211.511719 L 356.726562 221.976562 L 366.84375 228.855469 L 379.511719 231.632812 L 392.175781 228.855469 L 402.296875 221.976562 L 409.429688 211.511719 L 411.953125 198.820312 L 409.429688 186.15625 L 402.296875 176.035156 L 392.175781 169.273438 L 379.511719 166.519531 L 366.84375 169.273438 Z M 760.871094 297.953125 L 769.414062 299.898438 L 779.304688 303.511719 L 790.164062 309.070312 L 801.253906 317.382812 L 812.371094 328.242188 L 823.207031 342.714844 L 833.09375 360.894531 L 841.6875 383.46875 L 848.191406 410.726562 L 852.523438 442.796875 L 854.097656 480.773438 L 852.175781 518.773438 L 847.195312 550.84375 L 839.855469 577.359375 L 829.96875 599.308594 L 818.855469 616.910156 L 806.441406 630.800781 L 793.542969 640.921875 L 780.507812 648.402344 L 768.210938 653.332031 L 757.097656 656.113281 L 747.207031 657.6875 L 739.867188 658.265625 L 734.9375 657.917969 L 481.050781 657.917969 L 481.050781 683.226562 L 661.367188 683.226562 L 661.738281 768.511719 L 662.316406 779.605469 L 660.742188 790.09375 L 657.386719 799.609375 L 652.082031 808.527344 L 644.371094 816.238281 L 634.855469 823.738281 L 623.160156 829.875 L 609.519531 835.179688 L 593.84375 839.742188 L 575.875 843.722656 L 556.125 846.503906 L 534.285156 848.65625 L 510.390625 849.859375 L 484.453125 850.230469 L 445.273438 849.027344 L 412.230469 844.671875 L 384.464844 838.535156 L 361.933594 830.824219 L 343.710938 821.539062 L 329.839844 811.28125 L 319.351562 800.792969 L 311.640625 790.324219 L 306.707031 780.160156 L 303.558594 770.898438 L 302.355469 763.1875 L 301.726562 757.003906 L 301.984375 753.042969 L 301.984375 588.171875 L 303.558594 568.371094 L 307.65625 551.609375 L 314.046875 537.503906 L 322.128906 525.671875 L 331.390625 515.925781 L 341.558594 508.445312 L 352.394531 502.261719 L 363.140625 497.933594 L 373.398438 494.78125 L 382.683594 493 L 390.625 491.796875 L 401.113281 490.800781 L 581.433594 490.800781 L 602.757812 489.25 L 620.984375 485.011719 L 636.429688 478.503906 L 649.09375 469.820312 L 659.261719 459.910156 L 667.574219 449.1875 L 673.847656 437.957031 L 678.457031 426.867188 L 681.582031 416.121094 L 683.785156 406.234375 L 684.988281 397.550781 L 685.566406 391.042969 L 685.566406 296.589844 L 750.101562 296.589844 L 754.457031 296.84375 Z M 561.007812 737.921875 L 553.875 748.179688 L 551.46875 760.871094 L 553.875 773.539062 L 561.007812 783.65625 L 571.265625 790.765625 L 583.933594 793.171875 L 596.601562 790.765625 L 606.71875 783.65625 L 613.851562 773.539062 L 616.375 760.871094 L 613.851562 748.179688 L 606.71875 737.921875 L 596.601562 730.8125 L 583.933594 728.40625 L 571.265625 730.8125 Z M 561.007812 737.921875 " fill-opacity="1" fill-rule="nonzero"/></g></svg>