<svg xmlns="http://www.w3.org/2000/svg" xmlns:xlink="http://www.w3.org/1999/xlink" width="1280" zoomAndPan="magnify" viewBox="0 0 960 959.999988" height="1280" preserveAspectRatio="xMidYMid meet" version="1.0">
    <defs>
        <clipPath id="8073e4652e"><path d="M 75 0 L 885 0 C 926.421875 0 960 33.578125 960 75 L 960 885 C 960 926.421875 926.421875 960 885 960 L 75 960 C 33.578125 960 0 926.421875 0 885 L 0 75 C 0 33.578125 33.578125 0 75 0 Z M 75 0 " clip-rule="nonzero" /></clipPath>
        <linearGradient x1="0" gradientTransform="matrix(3.75, 0, 0, 3.75, 0.00000575, 0.00002)" y1="128" x2="255.999989" gradientUnits="userSpaceOnUse" y2="128" id="c23948bccb">
            <stop stop-opacity="1" stop-color="rgb(94.099426%, 94.099426%, 94.099426%)" offset="0" />
            <stop stop-opacity="1" stop-color="rgb(93.995667%, 93.971252%, 93.971252%)" offset="0.03125" />
            <stop stop-opacity="1" stop-color="rgb(93.789673%, 93.714905%, 93.714905%)" offset="0.0625" />
            <stop stop-opacity="1" stop-color="rgb(93.583679%, 93.458557%, 93.458557%)" offset="0.09375" />
            <stop stop-opacity="1" stop-color="rgb(93.37616%, 93.202209%, 93.202209%)" offset="0.125" />
            <stop stop-opacity="1" stop-color="rgb(93.170166%, 92.945862%, 92.945862%)" offset="0.15625" />
            <stop stop-opacity="1" stop-color="rgb(92.964172%, 92.689514%, 92.689514%)" offset="0.1875" />
            <stop stop-opacity="1" stop-color="rgb(92.758179%, 92.433167%, 92.433167%)" offset="0.21875" />
            <stop stop-opacity="1" stop-color="rgb(92.552185%, 92.176819%, 92.176819%)" offset="0.25" />
            <stop stop-opacity="1" stop-color="rgb(92.346191%, 91.920471%, 91.920471%)" offset="0.28125" />
            <stop stop-opacity="1" stop-color="rgb(92.138672%, 91.664124%, 91.664124%)" offset="0.3125" />
            <stop stop-opacity="1" stop-color="rgb(91.932678%, 91.409302%, 91.409302%)" offset="0.34375" />
            <stop stop-opacity="1" stop-color="rgb(91.726685%, 91.152954%, 91.152954%)" offset="0.375" />
            <stop stop-opacity="1" stop-color="rgb(91.520691%, 90.896606%, 90.896606%)" offset="0.40625" />
            <stop stop-opacity="1" stop-color="rgb(91.314697%, 90.640259%, 90.640259%)" offset="0.4375" />
            <stop stop-opacity="1" stop-color="rgb(91.108704%, 90.383911%, 90.383911%)" offset="0.46875" />
            <stop stop-opacity="1" stop-color="rgb(90.901184%, 90.127563%, 90.127563%)" offset="0.5" />
            <stop stop-opacity="1" stop-color="rgb(90.69519%, 89.871216%, 89.871216%)" offset="0.53125" />
            <stop stop-opacity="1" stop-color="rgb(90.489197%, 89.614868%, 89.614868%)" offset="0.5625" />
            <stop stop-opacity="1" stop-color="rgb(90.283203%, 89.358521%, 89.358521%)" offset="0.59375" />
            <stop stop-opacity="1" stop-color="rgb(90.077209%, 89.102173%, 89.102173%)" offset="0.625" />
            <stop stop-opacity="1" stop-color="rgb(89.871216%, 88.845825%, 88.845825%)" offset="0.65625" />
            <stop stop-opacity="1" stop-color="rgb(89.663696%, 88.589478%, 88.589478%)" offset="0.6875" />
            <stop stop-opacity="1" stop-color="rgb(89.457703%, 88.33313%, 88.33313%)" offset="0.71875" />
            <stop stop-opacity="1" stop-color="rgb(89.251709%, 88.076782%, 88.076782%)" offset="0.75" />
            <stop stop-opacity="1" stop-color="rgb(89.045715%, 87.820435%, 87.820435%)" offset="0.78125" />
            <stop stop-opacity="1" stop-color="rgb(88.839722%, 87.564087%, 87.564087%)" offset="0.8125" />
            <stop stop-opacity="1" stop-color="rgb(88.633728%, 87.309265%, 87.309265%)" offset="0.84375" />
            <stop stop-opacity="1" stop-color="rgb(88.426208%, 87.052917%, 87.052917%)" offset="0.875" />
            <stop stop-opacity="1" stop-color="rgb(88.220215%, 86.79657%, 86.79657%)" offset="0.90625" />
            <stop stop-opacity="1" stop-color="rgb(88.014221%, 86.540222%, 86.540222%)" offset="0.9375" />
            <stop stop-opacity="1" stop-color="rgb(87.808228%, 86.283875%, 86.283875%)" offset="0.96875" />
            <stop stop-opacity="1" stop-color="rgb(87.602234%, 86.027527%, 86.027527%)" offset="1" />
        </linearGradient>
        <clipPath id="dfd5848d60"><path d="M 203.546875 203.546875 L 756.296875 203.546875 L 756.296875 756.296875 L 203.546875 756.296875 Z M 203.546875 203.546875 " clip-rule="nonzero" /></clipPath>
    </defs>
    <g clip-path="url(#8073e4652e)"><rect x="-96" fill="url(#c23948bccb)" width="1152" y="-95.999999" height="1151.999986" /></g>
    <g clip-path="url(#dfd5848d60)"><path fill="#000000" d="M 533.105469 207.691406 L 553.886719 212.269531 L 570.691406 218.296875 L 584.289062 225.207031 L 594.632812 232.601562 L 602.460938 240.425781 L 608.210938 248.234375 L 611.890625 255.816406 L 614.152344 262.726562 L 615.136719 268.667969 L 615.605469 273.347656 L 615.328125 276.320312 L 615.328125 399.304688 L 614.152344 413.796875 L 611.183594 426.496094 L 606.328125 437.117188 L 600.386719 445.839844 L 593.476562 452.941406 L 585.929688 458.691406 L 577.828125 463.113281 L 569.726562 466.34375 L 562.175781 468.695312 L 555.269531 470.214844 L 549.324219 471.199219 L 544.472656 471.664062 L 406.90625 471.664062 L 391.085938 472.820312 L 377.488281 475.984375 L 365.96875 481.113281 L 356.519531 487.316406 L 348.867188 494.707031 L 342.648438 502.707031 L 338.070312 511.082031 L 334.632812 519.53125 L 332.300781 527.613281 L 330.695312 535.007812 L 329.78125 541.207031 L 329.347656 546.0625 L 329.347656 616.519531 L 277.960938 616.519531 L 273.125 615.777344 L 266.628906 614.171875 L 259.355469 611.476562 L 251.253906 607.332031 L 242.980469 601.320312 L 234.707031 593.027344 L 226.605469 582.40625 L 219.230469 568.8125 L 212.734375 552.003906 L 207.96875 531.757812 L 204.738281 507.558594 L 203.5625 479.230469 L 204.929688 451.160156 L 208.609375 427.238281 L 214.1875 407.183594 L 221.5625 390.808594 L 229.855469 377.679688 L 239.027344 367.59375 L 248.75 359.941406 L 258.371094 354.464844 L 267.632812 350.785156 L 275.921875 348.4375 L 283.296875 347.261719 L 288.773438 347.070312 L 292.453125 347.070312 L 293.902344 347.261719 L 481.753906 347.261719 L 481.753906 328.191406 L 347.246094 328.191406 L 347.054688 264.851562 L 346.621094 256.300781 L 347.796875 248.476562 L 350.300781 241.375 L 354.171875 234.878906 L 359.921875 228.957031 L 367.125 223.636719 L 375.832031 219.058594 L 386.003906 214.824219 L 397.699219 211.421875 L 411.105469 208.640625 L 425.75 206.378906 L 442.128906 204.945312 L 459.867188 204.046875 L 479.214844 203.582031 L 508.441406 204.753906 Z M 388.078125 253.292969 L 382.757812 260.84375 L 380.875 270.292969 L 382.757812 279.757812 L 388.078125 287.566406 L 395.628906 292.695312 L 405.074219 294.765625 L 414.523438 292.695312 L 422.074219 287.566406 L 427.394531 279.757812 L 429.277344 270.292969 L 427.394531 260.84375 L 422.074219 253.292969 L 414.523438 248.25 L 405.074219 246.195312 L 395.628906 248.25 Z M 689.550781 344.238281 L 695.925781 345.691406 L 703.300781 348.382812 L 711.402344 352.53125 L 719.675781 358.730469 L 727.96875 366.832031 L 736.050781 377.628906 L 743.425781 391.1875 L 749.835938 408.03125 L 754.691406 428.359375 L 757.921875 452.285156 L 759.09375 480.613281 L 757.660156 508.957031 L 753.945312 532.882812 L 748.472656 552.660156 L 741.097656 569.035156 L 732.804688 582.164062 L 723.546875 592.527344 L 713.925781 600.074219 L 704.199219 605.65625 L 695.027344 609.335938 L 686.734375 611.40625 L 679.359375 612.582031 L 673.886719 613.011719 L 670.207031 612.753906 L 480.820312 612.753906 L 480.820312 631.632812 L 615.328125 631.632812 L 615.605469 695.253906 L 616.035156 703.527344 L 614.863281 711.351562 L 612.355469 718.449219 L 608.402344 725.101562 L 602.648438 730.851562 L 595.550781 736.449219 L 586.828125 741.027344 L 576.652344 744.980469 L 564.957031 748.386719 L 551.554688 751.355469 L 536.820312 753.429688 L 520.53125 755.035156 L 502.703125 755.933594 L 483.359375 756.210938 L 454.132812 755.3125 L 429.484375 752.066406 L 408.773438 747.488281 L 391.964844 741.734375 L 378.371094 734.808594 L 368.023438 727.15625 L 360.199219 719.332031 L 354.445312 711.523438 L 350.769531 703.941406 L 348.417969 697.03125 L 347.519531 691.28125 L 347.054688 686.667969 L 347.242188 683.714844 L 347.242188 560.726562 L 348.417969 545.957031 L 351.476562 533.453125 L 356.242188 522.933594 L 362.273438 514.105469 L 369.179688 506.832031 L 376.765625 501.253906 L 384.847656 496.640625 L 392.863281 493.414062 L 400.515625 491.0625 L 407.441406 489.734375 L 413.367188 488.835938 L 421.191406 488.09375 L 555.699219 488.09375 L 571.609375 486.933594 L 585.203125 483.773438 L 596.722656 478.917969 L 606.171875 472.441406 L 613.757812 465.050781 L 619.957031 457.050781 L 624.636719 448.675781 L 628.074219 440.398438 L 630.40625 432.386719 L 632.046875 425.007812 L 632.945312 418.53125 L 633.378906 413.679688 L 633.378906 343.21875 L 681.519531 343.21875 L 684.765625 343.410156 Z M 540.464844 672.433594 L 535.144531 680.085938 L 533.347656 689.550781 L 535.144531 699 L 540.464844 706.550781 L 548.117188 711.851562 L 557.566406 713.648438 L 567.015625 711.851562 L 574.5625 706.550781 L 579.882812 699 L 581.765625 689.550781 L 579.882812 680.085938 L 574.5625 672.433594 L 567.015625 667.132812 L 557.566406 665.335938 L 548.117188 667.132812 Z M 540.464844 672.433594 " fill-opacity="1" fill-rule="nonzero" /></g>
</svg>