<svg xmlns="http://www.w3.org/2000/svg" xmlns:xlink="http://www.w3.org/1999/xlink" width="1280" zoomAndPan="magnify" viewBox="0 0 960 959.999988" height="1280" preserveAspectRatio="xMidYMid meet" version="1.0"><defs><clipPath id="b8a37ed1e6"><path d="M 75 0 L 885 0 C 926.421875 0 960 33.578125 960 75 L 960 885 C 960 926.421875 926.421875 960 885 960 L 75 960 C 33.578125 960 0 926.421875 0 885 L 0 75 C 0 33.578125 33.578125 0 75 0 Z M 75 0 " clip-rule="nonzero"/></clipPath><linearGradient x1="0" gradientTransform="matrix(3.75, 0, 0, 3.75, 0.00000575, 0.00002)" y1="128" x2="255.999989" gradientUnits="userSpaceOnUse" y2="128" id="b34c9a93cf"><stop stop-opacity="1" stop-color="rgb(12.89978%, 12.89978%, 13.299561%)" offset="0"/><stop stop-opacity="1" stop-color="rgb(13.05542%, 13.027954%, 13.424683%)" offset="0.015625"/><stop stop-opacity="1" stop-color="rgb(13.366699%, 13.285828%, 13.676453%)" offset="0.03125"/><stop stop-opacity="1" stop-color="rgb(13.679504%, 13.543701%, 13.928223%)" offset="0.046875"/><stop stop-opacity="1" stop-color="rgb(13.99231%, 13.801575%, 14.178467%)" offset="0.0625"/><stop stop-opacity="1" stop-color="rgb(14.305115%, 14.057922%, 14.430237%)" offset="0.078125"/><stop stop-opacity="1" stop-color="rgb(14.61792%, 14.315796%, 14.682007%)" offset="0.09375"/><stop stop-opacity="1" stop-color="rgb(14.929199%, 14.573669%, 14.933777%)" offset="0.109375"/><stop stop-opacity="1" stop-color="rgb(15.242004%, 14.831543%, 15.185547%)" offset="0.125"/><stop stop-opacity="1" stop-color="rgb(15.55481%, 15.089417%, 15.437317%)" offset="0.140625"/><stop stop-opacity="1" stop-color="rgb(15.867615%, 15.34729%, 15.689087%)" offset="0.15625"/><stop stop-opacity="1" stop-color="rgb(16.18042%, 15.605164%, 15.939331%)" offset="0.171875"/><stop stop-opacity="1" stop-color="rgb(16.491699%, 15.863037%, 16.191101%)" offset="0.1875"/><stop stop-opacity="1" stop-color="rgb(16.804504%, 16.120911%, 16.442871%)" offset="0.203125"/><stop stop-opacity="1" stop-color="rgb(17.11731%, 16.378784%, 16.694641%)" offset="0.21875"/><stop stop-opacity="1" stop-color="rgb(17.430115%, 16.636658%, 16.946411%)" offset="0.234375"/><stop stop-opacity="1" stop-color="rgb(17.74292%, 16.894531%, 17.198181%)" offset="0.25"/><stop stop-opacity="1" stop-color="rgb(18.054199%, 17.152405%, 17.449951%)" offset="0.265625"/><stop stop-opacity="1" stop-color="rgb(18.367004%, 17.410278%, 17.700195%)" offset="0.28125"/><stop stop-opacity="1" stop-color="rgb(18.67981%, 17.668152%, 17.951965%)" offset="0.296875"/><stop stop-opacity="1" stop-color="rgb(18.992615%, 17.926025%, 18.203735%)" offset="0.3125"/><stop stop-opacity="1" stop-color="rgb(19.30542%, 18.183899%, 18.455505%)" offset="0.328125"/><stop stop-opacity="1" stop-color="rgb(19.616699%, 18.441772%, 18.707275%)" offset="0.34375"/><stop stop-opacity="1" stop-color="rgb(19.929504%, 18.699646%, 18.959045%)" offset="0.359375"/><stop stop-opacity="1" stop-color="rgb(20.24231%, 18.95752%, 19.210815%)" offset="0.375"/><stop stop-opacity="1" stop-color="rgb(20.555115%, 19.215393%, 19.462585%)" offset="0.390625"/><stop stop-opacity="1" stop-color="rgb(20.86792%, 19.473267%, 19.71283%)" offset="0.40625"/><stop stop-opacity="1" stop-color="rgb(21.179199%, 19.73114%, 19.9646%)" offset="0.421875"/><stop stop-opacity="1" stop-color="rgb(21.492004%, 19.989014%, 20.21637%)" offset="0.4375"/><stop stop-opacity="1" stop-color="rgb(21.80481%, 20.246887%, 20.46814%)" offset="0.453125"/><stop stop-opacity="1" stop-color="rgb(22.117615%, 20.503235%, 20.71991%)" offset="0.46875"/><stop stop-opacity="1" stop-color="rgb(22.43042%, 20.761108%, 20.97168%)" offset="0.484375"/><stop stop-opacity="1" stop-color="rgb(22.741699%, 21.018982%, 21.22345%)" offset="0.5"/><stop stop-opacity="1" stop-color="rgb(23.054504%, 21.276855%, 21.473694%)" offset="0.515625"/><stop stop-opacity="1" stop-color="rgb(23.36731%, 21.534729%, 21.725464%)" offset="0.53125"/><stop stop-opacity="1" stop-color="rgb(23.680115%, 21.792603%, 21.977234%)" offset="0.546875"/><stop stop-opacity="1" stop-color="rgb(23.99292%, 22.050476%, 22.229004%)" offset="0.5625"/><stop stop-opacity="1" stop-color="rgb(24.304199%, 22.30835%, 22.480774%)" offset="0.578125"/><stop stop-opacity="1" stop-color="rgb(24.617004%, 22.566223%, 22.732544%)" offset="0.59375"/><stop stop-opacity="1" stop-color="rgb(24.92981%, 22.824097%, 22.984314%)" offset="0.609375"/><stop stop-opacity="1" stop-color="rgb(25.242615%, 23.08197%, 23.234558%)" offset="0.625"/><stop stop-opacity="1" stop-color="rgb(25.55542%, 23.339844%, 23.486328%)" offset="0.640625"/><stop stop-opacity="1" stop-color="rgb(25.866699%, 23.597717%, 23.738098%)" offset="0.65625"/><stop stop-opacity="1" stop-color="rgb(26.179504%, 23.855591%, 23.989868%)" offset="0.671875"/><stop stop-opacity="1" stop-color="rgb(26.49231%, 24.113464%, 24.241638%)" offset="0.6875"/><stop stop-opacity="1" stop-color="rgb(26.805115%, 24.371338%, 24.493408%)" offset="0.703125"/><stop stop-opacity="1" stop-color="rgb(27.11792%, 24.629211%, 24.745178%)" offset="0.71875"/><stop stop-opacity="1" stop-color="rgb(27.429199%, 24.887085%, 24.996948%)" offset="0.734375"/><stop stop-opacity="1" stop-color="rgb(27.742004%, 25.144958%, 25.247192%)" offset="0.75"/><stop stop-opacity="1" stop-color="rgb(28.05481%, 25.402832%, 25.498962%)" offset="0.765625"/><stop stop-opacity="1" stop-color="rgb(28.367615%, 25.660706%, 25.750732%)" offset="0.78125"/><stop stop-opacity="1" stop-color="rgb(28.68042%, 25.918579%, 26.002502%)" offset="0.796875"/><stop stop-opacity="1" stop-color="rgb(28.991699%, 26.176453%, 26.254272%)" offset="0.8125"/><stop stop-opacity="1" stop-color="rgb(29.304504%, 26.434326%, 26.506042%)" offset="0.828125"/><stop stop-opacity="1" stop-color="rgb(29.61731%, 26.6922%, 26.757812%)" offset="0.84375"/><stop stop-opacity="1" stop-color="rgb(29.930115%, 26.948547%, 27.008057%)" offset="0.859375"/><stop stop-opacity="1" stop-color="rgb(30.24292%, 27.206421%, 27.259827%)" offset="0.875"/><stop stop-opacity="1" stop-color="rgb(30.554199%, 27.464294%, 27.511597%)" offset="0.890625"/><stop stop-opacity="1" stop-color="rgb(30.867004%, 27.722168%, 27.763367%)" offset="0.90625"/><stop stop-opacity="1" stop-color="rgb(31.17981%, 27.980042%, 28.015137%)" offset="0.921875"/><stop stop-opacity="1" stop-color="rgb(31.492615%, 28.237915%, 28.266907%)" offset="0.9375"/><stop stop-opacity="1" stop-color="rgb(31.80542%, 28.495789%, 28.518677%)" offset="0.953125"/><stop stop-opacity="1" stop-color="rgb(32.116699%, 28.753662%, 28.768921%)" offset="0.96875"/><stop stop-opacity="1" stop-color="rgb(32.429504%, 29.011536%, 29.020691%)" offset="0.984375"/><stop stop-opacity="1" stop-color="rgb(32.74231%, 29.269409%, 29.272461%)" offset="1"/></linearGradient><clipPath id="5c45507950"><path d="M 109.347656 109.347656 L 850.347656 109.347656 L 850.347656 850.347656 L 109.347656 850.347656 Z M 109.347656 109.347656 " clip-rule="nonzero"/></clipPath></defs><g clip-path="url(#b8a37ed1e6)"><rect x="-96" fill="url(#b34c9a93cf)" width="1152" y="-95.999999" height="1151.999986"/></g><g clip-path="url(#5c45507950)"><path fill="#ffffff" d="M 551.324219 114.90625 L 579.195312 121.046875 L 601.734375 129.128906 L 619.964844 138.394531 L 633.84375 148.3125 L 644.335938 158.804688 L 652.050781 169.277344 L 656.984375 179.445312 L 660.019531 188.710938 L 661.339844 196.679688 L 661.964844 202.960938 L 661.59375 206.945312 L 661.59375 371.882812 L 660.019531 391.320312 L 656.035156 408.347656 L 649.527344 422.59375 L 641.558594 434.292969 L 632.289062 443.8125 L 622.167969 451.527344 L 611.300781 457.457031 L 600.4375 461.789062 L 590.3125 464.941406 L 581.046875 466.980469 L 573.078125 468.300781 L 566.570312 468.925781 L 382.078125 468.925781 L 360.855469 470.476562 L 342.625 474.71875 L 327.175781 481.597656 L 314.503906 489.914062 L 304.238281 499.828125 L 295.898438 510.554688 L 289.761719 521.789062 L 285.152344 533.117188 L 282.023438 543.960938 L 279.871094 553.875 L 278.640625 562.191406 L 278.0625 568.699219 L 278.0625 663.195312 L 209.144531 663.195312 L 202.65625 662.199219 L 193.949219 660.042969 L 184.195312 656.429688 L 173.332031 650.871094 L 162.234375 642.808594 L 151.136719 631.6875 L 140.273438 617.441406 L 130.382812 599.210938 L 121.671875 576.667969 L 115.277344 549.519531 L 110.945312 517.0625 L 109.371094 479.070312 L 111.199219 441.425781 L 116.132812 409.34375 L 123.617188 382.449219 L 133.507812 360.488281 L 144.628906 342.878906 L 156.929688 329.351562 L 169.972656 319.089844 L 182.875 311.746094 L 195.292969 306.8125 L 206.410156 303.660156 L 216.304688 302.085938 L 223.644531 301.832031 L 228.582031 301.832031 L 230.527344 302.085938 L 482.453125 302.085938 L 482.453125 276.511719 L 302.0625 276.511719 L 301.808594 191.5625 L 301.226562 180.09375 L 302.804688 169.601562 L 306.164062 160.078125 L 311.351562 151.367188 L 319.066406 143.421875 L 328.726562 136.289062 L 340.402344 130.148438 L 354.046875 124.472656 L 369.730469 119.910156 L 387.707031 116.179688 L 407.351562 113.144531 L 429.3125 111.222656 L 453.101562 110.019531 L 479.050781 109.394531 L 518.246094 110.96875 Z M 356.828125 176.0625 L 349.691406 186.1875 L 347.167969 198.859375 L 349.691406 211.554688 L 356.828125 222.023438 L 366.949219 228.90625 L 379.621094 231.683594 L 392.292969 228.90625 L 402.417969 222.023438 L 409.550781 211.554688 L 412.078125 198.859375 L 409.550781 186.1875 L 402.417969 176.0625 L 392.292969 169.300781 L 379.621094 166.542969 L 366.949219 169.300781 Z M 761.136719 298.03125 L 769.6875 299.976562 L 779.578125 303.589844 L 790.441406 309.152344 L 801.539062 317.46875 L 812.660156 328.332031 L 823.5 342.8125 L 833.390625 360.996094 L 841.988281 383.582031 L 848.496094 410.847656 L 852.828125 442.933594 L 854.402344 480.925781 L 852.480469 518.941406 L 847.5 551.023438 L 840.15625 577.550781 L 830.265625 599.511719 L 819.144531 617.117188 L 806.730469 631.015625 L 793.824219 641.140625 L 780.78125 648.621094 L 768.480469 653.558594 L 757.363281 656.335938 L 747.472656 657.910156 L 740.128906 658.492188 L 735.191406 658.144531 L 481.203125 658.144531 L 481.203125 683.464844 L 661.59375 683.464844 L 661.964844 768.785156 L 662.546875 779.878906 L 660.96875 790.375 L 657.609375 799.894531 L 652.304688 808.8125 L 644.589844 816.527344 L 635.070312 824.035156 L 623.371094 830.171875 L 609.726562 835.476562 L 594.042969 840.042969 L 576.066406 844.027344 L 556.308594 846.804688 L 534.460938 848.960938 L 510.554688 850.164062 L 484.609375 850.535156 L 445.414062 849.332031 L 412.355469 844.976562 L 384.578125 838.835938 L 362.039062 831.121094 L 343.808594 821.832031 L 329.929688 811.570312 L 319.4375 801.078125 L 311.722656 790.605469 L 306.789062 780.4375 L 303.636719 771.167969 L 302.433594 763.457031 L 301.808594 757.269531 L 302.0625 753.308594 L 302.0625 588.367188 L 303.636719 568.5625 L 307.738281 551.789062 L 314.132812 537.683594 L 322.214844 525.84375 L 331.484375 516.089844 L 341.652344 508.609375 L 352.496094 502.421875 L 363.242188 498.089844 L 373.503906 494.941406 L 382.796875 493.15625 L 390.742188 491.953125 L 401.234375 490.957031 L 581.628906 490.957031 L 602.960938 489.40625 L 621.195312 485.164062 L 636.644531 478.65625 L 649.316406 469.96875 L 659.488281 460.054688 L 667.804688 449.328125 L 674.082031 438.09375 L 678.691406 426.996094 L 681.820312 416.246094 L 684.019531 406.355469 L 685.222656 397.667969 L 685.804688 391.160156 L 685.804688 296.664062 L 750.367188 296.664062 L 754.722656 296.917969 Z M 561.195312 738.179688 L 554.058594 748.445312 L 551.652344 761.136719 L 554.058594 773.808594 L 561.195312 783.933594 L 571.457031 791.046875 L 584.128906 793.453125 L 596.800781 791.046875 L 606.925781 783.933594 L 614.058594 773.808594 L 616.585938 761.136719 L 614.058594 748.445312 L 606.925781 738.179688 L 596.800781 731.070312 L 584.128906 728.660156 L 571.457031 731.070312 Z M 561.195312 738.179688 " fill-opacity="1" fill-rule="nonzero"/></g></svg>