<svg xmlns="http://www.w3.org/2000/svg" xmlns:xlink="http://www.w3.org/1999/xlink" width="1280" zoomAndPan="magnify" viewBox="0 0 960 959.999988" height="1280" preserveAspectRatio="xMidYMid meet" version="1.0">
    <defs>
        <clipPath id="6544aaaac1"><path d="M 75 0 L 885 0 C 926.421875 0 960 33.578125 960 75 L 960 885 C 960 926.421875 926.421875 960 885 960 L 75 960 C 33.578125 960 0 926.421875 0 885 L 0 75 C 0 33.578125 33.578125 0 75 0 Z M 75 0 " clip-rule="nonzero" /></clipPath>
        <linearGradient x1="0" gradientTransform="matrix(3.75, 0, 0, 3.75, 0.00000575, 0.00002)" y1="128" x2="255.999989" gradientUnits="userSpaceOnUse" y2="128" id="9c95ecb6d0">
            <stop stop-opacity="1" stop-color="rgb(12.89978%, 12.89978%, 13.299561%)" offset="0" />
            <stop stop-opacity="1" stop-color="rgb(13.05542%, 13.027954%, 13.424683%)" offset="0.015625" />
            <stop stop-opacity="1" stop-color="rgb(13.366699%, 13.285828%, 13.676453%)" offset="0.03125" />
            <stop stop-opacity="1" stop-color="rgb(13.679504%, 13.543701%, 13.928223%)" offset="0.046875" />
            <stop stop-opacity="1" stop-color="rgb(13.99231%, 13.801575%, 14.178467%)" offset="0.0625" />
            <stop stop-opacity="1" stop-color="rgb(14.305115%, 14.057922%, 14.430237%)" offset="0.078125" />
            <stop stop-opacity="1" stop-color="rgb(14.61792%, 14.315796%, 14.682007%)" offset="0.09375" />
            <stop stop-opacity="1" stop-color="rgb(14.929199%, 14.573669%, 14.933777%)" offset="0.109375" />
            <stop stop-opacity="1" stop-color="rgb(15.242004%, 14.831543%, 15.185547%)" offset="0.125" />
            <stop stop-opacity="1" stop-color="rgb(15.55481%, 15.089417%, 15.437317%)" offset="0.140625" />
            <stop stop-opacity="1" stop-color="rgb(15.867615%, 15.34729%, 15.689087%)" offset="0.15625" />
            <stop stop-opacity="1" stop-color="rgb(16.18042%, 15.605164%, 15.939331%)" offset="0.171875" />
            <stop stop-opacity="1" stop-color="rgb(16.491699%, 15.863037%, 16.191101%)" offset="0.1875" />
            <stop stop-opacity="1" stop-color="rgb(16.804504%, 16.120911%, 16.442871%)" offset="0.203125" />
            <stop stop-opacity="1" stop-color="rgb(17.11731%, 16.378784%, 16.694641%)" offset="0.21875" />
            <stop stop-opacity="1" stop-color="rgb(17.430115%, 16.636658%, 16.946411%)" offset="0.234375" />
            <stop stop-opacity="1" stop-color="rgb(17.74292%, 16.894531%, 17.198181%)" offset="0.25" />
            <stop stop-opacity="1" stop-color="rgb(18.054199%, 17.152405%, 17.449951%)" offset="0.265625" />
            <stop stop-opacity="1" stop-color="rgb(18.367004%, 17.410278%, 17.700195%)" offset="0.28125" />
            <stop stop-opacity="1" stop-color="rgb(18.67981%, 17.668152%, 17.951965%)" offset="0.296875" />
            <stop stop-opacity="1" stop-color="rgb(18.992615%, 17.926025%, 18.203735%)" offset="0.3125" />
            <stop stop-opacity="1" stop-color="rgb(19.30542%, 18.183899%, 18.455505%)" offset="0.328125" />
            <stop stop-opacity="1" stop-color="rgb(19.616699%, 18.441772%, 18.707275%)" offset="0.34375" />
            <stop stop-opacity="1" stop-color="rgb(19.929504%, 18.699646%, 18.959045%)" offset="0.359375" />
            <stop stop-opacity="1" stop-color="rgb(20.24231%, 18.95752%, 19.210815%)" offset="0.375" />
            <stop stop-opacity="1" stop-color="rgb(20.555115%, 19.215393%, 19.462585%)" offset="0.390625" />
            <stop stop-opacity="1" stop-color="rgb(20.86792%, 19.473267%, 19.71283%)" offset="0.40625" />
            <stop stop-opacity="1" stop-color="rgb(21.179199%, 19.73114%, 19.9646%)" offset="0.421875" />
            <stop stop-opacity="1" stop-color="rgb(21.492004%, 19.989014%, 20.21637%)" offset="0.4375" />
            <stop stop-opacity="1" stop-color="rgb(21.80481%, 20.246887%, 20.46814%)" offset="0.453125" />
            <stop stop-opacity="1" stop-color="rgb(22.117615%, 20.503235%, 20.71991%)" offset="0.46875" />
            <stop stop-opacity="1" stop-color="rgb(22.43042%, 20.761108%, 20.97168%)" offset="0.484375" />
            <stop stop-opacity="1" stop-color="rgb(22.741699%, 21.018982%, 21.22345%)" offset="0.5" />
            <stop stop-opacity="1" stop-color="rgb(23.054504%, 21.276855%, 21.473694%)" offset="0.515625" />
            <stop stop-opacity="1" stop-color="rgb(23.36731%, 21.534729%, 21.725464%)" offset="0.53125" />
            <stop stop-opacity="1" stop-color="rgb(23.680115%, 21.792603%, 21.977234%)" offset="0.546875" />
            <stop stop-opacity="1" stop-color="rgb(23.99292%, 22.050476%, 22.229004%)" offset="0.5625" />
            <stop stop-opacity="1" stop-color="rgb(24.304199%, 22.30835%, 22.480774%)" offset="0.578125" />
            <stop stop-opacity="1" stop-color="rgb(24.617004%, 22.566223%, 22.732544%)" offset="0.59375" />
            <stop stop-opacity="1" stop-color="rgb(24.92981%, 22.824097%, 22.984314%)" offset="0.609375" />
            <stop stop-opacity="1" stop-color="rgb(25.242615%, 23.08197%, 23.234558%)" offset="0.625" />
            <stop stop-opacity="1" stop-color="rgb(25.55542%, 23.339844%, 23.486328%)" offset="0.640625" />
            <stop stop-opacity="1" stop-color="rgb(25.866699%, 23.597717%, 23.738098%)" offset="0.65625" />
            <stop stop-opacity="1" stop-color="rgb(26.179504%, 23.855591%, 23.989868%)" offset="0.671875" />
            <stop stop-opacity="1" stop-color="rgb(26.49231%, 24.113464%, 24.241638%)" offset="0.6875" />
            <stop stop-opacity="1" stop-color="rgb(26.805115%, 24.371338%, 24.493408%)" offset="0.703125" />
            <stop stop-opacity="1" stop-color="rgb(27.11792%, 24.629211%, 24.745178%)" offset="0.71875" />
            <stop stop-opacity="1" stop-color="rgb(27.429199%, 24.887085%, 24.996948%)" offset="0.734375" />
            <stop stop-opacity="1" stop-color="rgb(27.742004%, 25.144958%, 25.247192%)" offset="0.75" />
            <stop stop-opacity="1" stop-color="rgb(28.05481%, 25.402832%, 25.498962%)" offset="0.765625" />
            <stop stop-opacity="1" stop-color="rgb(28.367615%, 25.660706%, 25.750732%)" offset="0.78125" />
            <stop stop-opacity="1" stop-color="rgb(28.68042%, 25.918579%, 26.002502%)" offset="0.796875" />
            <stop stop-opacity="1" stop-color="rgb(28.991699%, 26.176453%, 26.254272%)" offset="0.8125" />
            <stop stop-opacity="1" stop-color="rgb(29.304504%, 26.434326%, 26.506042%)" offset="0.828125" />
            <stop stop-opacity="1" stop-color="rgb(29.61731%, 26.6922%, 26.757812%)" offset="0.84375" />
            <stop stop-opacity="1" stop-color="rgb(29.930115%, 26.948547%, 27.008057%)" offset="0.859375" />
            <stop stop-opacity="1" stop-color="rgb(30.24292%, 27.206421%, 27.259827%)" offset="0.875" />
            <stop stop-opacity="1" stop-color="rgb(30.554199%, 27.464294%, 27.511597%)" offset="0.890625" />
            <stop stop-opacity="1" stop-color="rgb(30.867004%, 27.722168%, 27.763367%)" offset="0.90625" />
            <stop stop-opacity="1" stop-color="rgb(31.17981%, 27.980042%, 28.015137%)" offset="0.921875" />
            <stop stop-opacity="1" stop-color="rgb(31.492615%, 28.237915%, 28.266907%)" offset="0.9375" />
            <stop stop-opacity="1" stop-color="rgb(31.80542%, 28.495789%, 28.518677%)" offset="0.953125" />
            <stop stop-opacity="1" stop-color="rgb(32.116699%, 28.753662%, 28.768921%)" offset="0.96875" />
            <stop stop-opacity="1" stop-color="rgb(32.429504%, 29.011536%, 29.020691%)" offset="0.984375" />
            <stop stop-opacity="1" stop-color="rgb(32.74231%, 29.269409%, 29.272461%)" offset="1" />
        </linearGradient>
        <clipPath id="3eee75560d"><path d="M 203.546875 203.546875 L 756.296875 203.546875 L 756.296875 756.296875 L 203.546875 756.296875 Z M 203.546875 203.546875 " clip-rule="nonzero" /></clipPath>
    </defs>
    <g clip-path="url(#6544aaaac1)"><rect x="-96" fill="url(#9c95ecb6d0)" width="1152" y="-95.999999" height="1151.999986" /></g>
    <g clip-path="url(#3eee75560d)"><path fill="#ffffff" d="M 533.195312 207.691406 L 553.984375 212.273438 L 570.792969 218.300781 L 584.390625 225.214844 L 594.742188 232.609375 L 602.570312 240.433594 L 608.324219 248.246094 L 612.003906 255.832031 L 614.265625 262.742188 L 615.25 268.683594 L 615.71875 273.367188 L 615.441406 276.339844 L 615.441406 399.359375 L 614.265625 413.855469 L 611.292969 426.554688 L 606.4375 437.183594 L 600.496094 445.90625 L 593.585938 453.007812 L 586.035156 458.761719 L 577.929688 463.1875 L 569.828125 466.417969 L 562.277344 468.765625 L 555.363281 470.289062 L 549.421875 471.273438 L 544.566406 471.738281 L 406.960938 471.738281 L 391.136719 472.894531 L 377.539062 476.058594 L 366.011719 481.191406 L 356.5625 487.394531 L 348.90625 494.789062 L 342.6875 502.789062 L 338.109375 511.167969 L 334.671875 519.617188 L 332.339844 527.703125 L 330.730469 535.097656 L 329.816406 541.300781 L 329.382812 546.15625 L 329.382812 616.632812 L 277.980469 616.632812 L 273.144531 615.890625 L 266.644531 614.285156 L 259.371094 611.589844 L 251.269531 607.441406 L 242.992188 601.429688 L 234.714844 593.136719 L 226.613281 582.507812 L 219.234375 568.910156 L 212.738281 552.097656 L 207.96875 531.847656 L 204.738281 507.644531 L 203.5625 479.304688 L 204.929688 451.230469 L 208.609375 427.300781 L 214.191406 407.238281 L 221.566406 390.859375 L 229.859375 377.726562 L 239.035156 367.636719 L 248.761719 359.984375 L 258.386719 354.507812 L 267.648438 350.824219 L 275.941406 348.476562 L 283.320312 347.300781 L 288.796875 347.109375 L 292.476562 347.109375 L 293.929688 347.300781 L 481.828125 347.300781 L 481.828125 328.226562 L 347.285156 328.226562 L 347.09375 264.867188 L 346.660156 256.3125 L 347.835938 248.488281 L 350.34375 241.386719 L 354.210938 234.890625 L 359.964844 228.960938 L 367.171875 223.640625 L 375.878906 219.0625 L 386.054688 214.828125 L 397.753906 211.425781 L 411.160156 208.644531 L 425.8125 206.378906 L 442.191406 204.945312 L 459.9375 204.046875 L 479.289062 203.582031 L 508.523438 204.757812 Z M 388.128906 253.308594 L 382.808594 260.859375 L 380.925781 270.308594 L 382.808594 279.777344 L 388.128906 287.585938 L 395.679688 292.71875 L 405.132812 294.792969 L 414.582031 292.71875 L 422.132812 287.585938 L 427.453125 279.777344 L 429.339844 270.308594 L 427.453125 260.859375 L 422.132812 253.308594 L 414.582031 248.261719 L 405.132812 246.207031 L 395.679688 248.261719 Z M 689.6875 344.277344 L 696.0625 345.730469 L 703.4375 348.425781 L 711.542969 352.570312 L 719.820312 358.773438 L 728.113281 366.878906 L 736.199219 377.675781 L 743.578125 391.238281 L 749.988281 408.085938 L 754.84375 428.421875 L 758.074219 452.351562 L 759.246094 480.6875 L 757.8125 509.042969 L 754.097656 532.972656 L 748.621094 552.757812 L 741.242188 569.136719 L 732.949219 582.265625 L 723.6875 592.632812 L 714.066406 600.183594 L 704.335938 605.765625 L 695.164062 609.445312 L 686.871094 611.519531 L 679.492188 612.695312 L 674.015625 613.125 L 670.335938 612.867188 L 480.894531 612.867188 L 480.894531 631.753906 L 615.441406 631.753906 L 615.71875 695.386719 L 616.148438 703.664062 L 614.976562 711.492188 L 612.46875 718.59375 L 608.511719 725.246094 L 602.757812 731 L 595.65625 736.597656 L 586.933594 741.175781 L 576.753906 745.132812 L 565.058594 748.535156 L 551.648438 751.507812 L 536.910156 753.582031 L 520.617188 755.1875 L 502.789062 756.085938 L 483.4375 756.363281 L 454.203125 755.464844 L 429.546875 752.214844 L 408.828125 747.636719 L 392.015625 741.882812 L 378.417969 734.953125 L 368.070312 727.300781 L 360.242188 719.472656 L 354.488281 711.664062 L 350.808594 704.078125 L 348.457031 697.167969 L 347.558594 691.414062 L 347.09375 686.800781 L 347.285156 683.847656 L 347.285156 560.824219 L 348.457031 546.050781 L 351.515625 533.542969 L 356.285156 523.019531 L 362.316406 514.191406 L 369.226562 506.917969 L 376.8125 501.335938 L 384.898438 496.722656 L 392.914062 493.492188 L 400.570312 491.140625 L 407.5 489.8125 L 413.425781 488.914062 L 421.25 488.171875 L 555.796875 488.171875 L 571.710938 487.011719 L 585.308594 483.851562 L 596.832031 478.996094 L 606.285156 472.515625 L 613.867188 465.121094 L 620.070312 457.121094 L 624.753906 448.742188 L 628.191406 440.464844 L 630.523438 432.449219 L 632.167969 425.070312 L 633.066406 418.589844 L 633.496094 413.734375 L 633.496094 343.257812 L 681.652344 343.257812 L 684.898438 343.449219 Z M 540.558594 672.5625 L 535.234375 680.21875 L 533.4375 689.6875 L 535.234375 699.136719 L 540.558594 706.6875 L 548.210938 711.992188 L 557.664062 713.789062 L 567.113281 711.992188 L 574.664062 706.6875 L 579.988281 699.136719 L 581.871094 689.6875 L 579.988281 680.21875 L 574.664062 672.5625 L 567.113281 667.257812 L 557.664062 665.460938 L 548.210938 667.257812 Z M 540.558594 672.5625 " fill-opacity="1" fill-rule="nonzero" /></g>
</svg>