<svg xmlns="http://www.w3.org/2000/svg" xmlns:xlink="http://www.w3.org/1999/xlink" width="1280" zoomAndPan="magnify" viewBox="0 0 960 959.999988" height="1280" preserveAspectRatio="xMidYMid meet" version="1.0"><defs><clipPath id="0c7ad87471"><path d="M 75 0 L 885 0 C 926.421875 0 960 33.578125 960 75 L 960 885 C 960 926.421875 926.421875 960 885 960 L 75 960 C 33.578125 960 0 926.421875 0 885 L 0 75 C 0 33.578125 33.578125 0 75 0 Z M 75 0 " clip-rule="nonzero"/></clipPath><linearGradient x1="0" gradientTransform="matrix(3.75, 0, 0, 3.75, 0.00000575, 0.00002)" y1="128" x2="255.999989" gradientUnits="userSpaceOnUse" y2="128" id="67c81afc29"><stop stop-opacity="1" stop-color="rgb(94.099426%, 94.099426%, 94.099426%)" offset="0"/><stop stop-opacity="1" stop-color="rgb(93.995667%, 93.971252%, 93.971252%)" offset="0.03125"/><stop stop-opacity="1" stop-color="rgb(93.789673%, 93.714905%, 93.714905%)" offset="0.0625"/><stop stop-opacity="1" stop-color="rgb(93.583679%, 93.458557%, 93.458557%)" offset="0.09375"/><stop stop-opacity="1" stop-color="rgb(93.37616%, 93.202209%, 93.202209%)" offset="0.125"/><stop stop-opacity="1" stop-color="rgb(93.170166%, 92.945862%, 92.945862%)" offset="0.15625"/><stop stop-opacity="1" stop-color="rgb(92.964172%, 92.689514%, 92.689514%)" offset="0.1875"/><stop stop-opacity="1" stop-color="rgb(92.758179%, 92.433167%, 92.433167%)" offset="0.21875"/><stop stop-opacity="1" stop-color="rgb(92.552185%, 92.176819%, 92.176819%)" offset="0.25"/><stop stop-opacity="1" stop-color="rgb(92.346191%, 91.920471%, 91.920471%)" offset="0.28125"/><stop stop-opacity="1" stop-color="rgb(92.138672%, 91.664124%, 91.664124%)" offset="0.3125"/><stop stop-opacity="1" stop-color="rgb(91.932678%, 91.409302%, 91.409302%)" offset="0.34375"/><stop stop-opacity="1" stop-color="rgb(91.726685%, 91.152954%, 91.152954%)" offset="0.375"/><stop stop-opacity="1" stop-color="rgb(91.520691%, 90.896606%, 90.896606%)" offset="0.40625"/><stop stop-opacity="1" stop-color="rgb(91.314697%, 90.640259%, 90.640259%)" offset="0.4375"/><stop stop-opacity="1" stop-color="rgb(91.108704%, 90.383911%, 90.383911%)" offset="0.46875"/><stop stop-opacity="1" stop-color="rgb(90.901184%, 90.127563%, 90.127563%)" offset="0.5"/><stop stop-opacity="1" stop-color="rgb(90.69519%, 89.871216%, 89.871216%)" offset="0.53125"/><stop stop-opacity="1" stop-color="rgb(90.489197%, 89.614868%, 89.614868%)" offset="0.5625"/><stop stop-opacity="1" stop-color="rgb(90.283203%, 89.358521%, 89.358521%)" offset="0.59375"/><stop stop-opacity="1" stop-color="rgb(90.077209%, 89.102173%, 89.102173%)" offset="0.625"/><stop stop-opacity="1" stop-color="rgb(89.871216%, 88.845825%, 88.845825%)" offset="0.65625"/><stop stop-opacity="1" stop-color="rgb(89.663696%, 88.589478%, 88.589478%)" offset="0.6875"/><stop stop-opacity="1" stop-color="rgb(89.457703%, 88.33313%, 88.33313%)" offset="0.71875"/><stop stop-opacity="1" stop-color="rgb(89.251709%, 88.076782%, 88.076782%)" offset="0.75"/><stop stop-opacity="1" stop-color="rgb(89.045715%, 87.820435%, 87.820435%)" offset="0.78125"/><stop stop-opacity="1" stop-color="rgb(88.839722%, 87.564087%, 87.564087%)" offset="0.8125"/><stop stop-opacity="1" stop-color="rgb(88.633728%, 87.309265%, 87.309265%)" offset="0.84375"/><stop stop-opacity="1" stop-color="rgb(88.426208%, 87.052917%, 87.052917%)" offset="0.875"/><stop stop-opacity="1" stop-color="rgb(88.220215%, 86.79657%, 86.79657%)" offset="0.90625"/><stop stop-opacity="1" stop-color="rgb(88.014221%, 86.540222%, 86.540222%)" offset="0.9375"/><stop stop-opacity="1" stop-color="rgb(87.808228%, 86.283875%, 86.283875%)" offset="0.96875"/><stop stop-opacity="1" stop-color="rgb(87.602234%, 86.027527%, 86.027527%)" offset="1"/></linearGradient></defs><g clip-path="url(#0c7ad87471)"><rect x="-96" fill="url(#67c81afc29)" width="1152" y="-95.999999" height="1151.999986"/></g><path fill="#000000" d="M 212.292969 483.183594 L 211.988281 522.5 L 336.9375 522.5 L 336.9375 877.546875 L 425.320312 877.546875 L 425.320312 522.5 L 550.269531 522.5 L 550.269531 483.945312 C 550.269531 462.609375 549.816406 444.785156 549.207031 444.328125 C 548.75 443.71875 472.710938 443.410156 380.519531 443.566406 L 212.75 444.023438 Z M 774.625 442.90625 C 799.003906 449.003906 817.597656 459.820312 834.664062 477.496094 C 843.503906 486.945312 856.605469 504.164062 857.671875 508.277344 C 857.976562 509.496094 816.226562 537.535156 790.929688 553.230469 C 790.015625 553.839844 786.355469 549.878906 782.242188 543.785156 C 769.902344 525.800781 756.949219 518.027344 737.136719 516.660156 C 708.035156 514.675781 689.292969 529.917969 689.445312 555.363281 C 689.445312 562.828125 690.511719 567.246094 693.558594 573.34375 C 699.957031 586.601562 711.84375 594.523438 749.179688 610.675781 C 817.902344 640.242188 847.308594 659.746094 865.597656 687.476562 C 886.015625 718.410156 890.585938 767.78125 876.71875 804.507812 C 861.484375 844.429688 823.691406 871.550781 770.507812 880.546875 C 754.054688 883.441406 715.042969 882.984375 697.367188 879.785156 C 658.816406 872.925781 622.246094 853.878906 599.691406 828.890625 C 590.855469 819.136719 573.632812 793.6875 574.703125 791.859375 C 575.15625 791.25 579.121094 788.8125 583.539062 786.222656 C 587.804688 783.785156 603.960938 774.488281 619.195312 765.648438 L 646.777344 749.648438 L 652.566406 758.183594 C 660.644531 770.523438 678.320312 787.441406 688.988281 793.078125 C 719.613281 809.230469 761.671875 806.945312 782.394531 788.355469 C 791.234375 780.277344 794.890625 771.894531 794.890625 759.554688 C 794.890625 748.429688 793.519531 743.554688 787.730469 735.171875 C 780.261719 724.507812 765.027344 715.515625 721.746094 696.773438 C 672.226562 675.4375 650.890625 662.183594 631.386719 641.152344 C 620.109375 628.964844 609.441406 609.457031 605.023438 593.152344 C 601.367188 579.59375 600.453125 545.609375 603.347656 531.894531 C 613.554688 484.050781 649.671875 450.679688 701.785156 440.769531 C 718.703125 437.574219 758.015625 438.792969 774.625 442.90625 " fill-opacity="1" fill-rule="nonzero"/></svg>