<svg xmlns="http://www.w3.org/2000/svg" xmlns:xlink="http://www.w3.org/1999/xlink" width="1280" zoomAndPan="magnify" viewBox="0 0 960 959.999988" height="1280" preserveAspectRatio="xMidYMid meet" version="1.0">
    <defs>
        <clipPath id="5928b59252"><path d="M 75 0 L 885 0 C 926.421875 0 960 33.578125 960 75 L 960 885 C 960 926.421875 926.421875 960 885 960 L 75 960 C 33.578125 960 0 926.421875 0 885 L 0 75 C 0 33.578125 33.578125 0 75 0 Z M 75 0 " clip-rule="nonzero" /></clipPath>
        <linearGradient x1="0" gradientTransform="matrix(3.75, 0, 0, 3.75, 0.00000575, 0.00002)" y1="128" x2="255.999989" gradientUnits="userSpaceOnUse" y2="128" id="9182c31a17">
            <stop stop-opacity="1" stop-color="rgb(94.099426%, 94.099426%, 94.099426%)" offset="0" />
            <stop stop-opacity="1" stop-color="rgb(93.995667%, 93.971252%, 93.971252%)" offset="0.03125" />
            <stop stop-opacity="1" stop-color="rgb(93.789673%, 93.714905%, 93.714905%)" offset="0.0625" />
            <stop stop-opacity="1" stop-color="rgb(93.583679%, 93.458557%, 93.458557%)" offset="0.09375" />
            <stop stop-opacity="1" stop-color="rgb(93.37616%, 93.202209%, 93.202209%)" offset="0.125" />
            <stop stop-opacity="1" stop-color="rgb(93.170166%, 92.945862%, 92.945862%)" offset="0.15625" />
            <stop stop-opacity="1" stop-color="rgb(92.964172%, 92.689514%, 92.689514%)" offset="0.1875" />
            <stop stop-opacity="1" stop-color="rgb(92.758179%, 92.433167%, 92.433167%)" offset="0.21875" />
            <stop stop-opacity="1" stop-color="rgb(92.552185%, 92.176819%, 92.176819%)" offset="0.25" />
            <stop stop-opacity="1" stop-color="rgb(92.346191%, 91.920471%, 91.920471%)" offset="0.28125" />
            <stop stop-opacity="1" stop-color="rgb(92.138672%, 91.664124%, 91.664124%)" offset="0.3125" />
            <stop stop-opacity="1" stop-color="rgb(91.932678%, 91.409302%, 91.409302%)" offset="0.34375" />
            <stop stop-opacity="1" stop-color="rgb(91.726685%, 91.152954%, 91.152954%)" offset="0.375" />
            <stop stop-opacity="1" stop-color="rgb(91.520691%, 90.896606%, 90.896606%)" offset="0.40625" />
            <stop stop-opacity="1" stop-color="rgb(91.314697%, 90.640259%, 90.640259%)" offset="0.4375" />
            <stop stop-opacity="1" stop-color="rgb(91.108704%, 90.383911%, 90.383911%)" offset="0.46875" />
            <stop stop-opacity="1" stop-color="rgb(90.901184%, 90.127563%, 90.127563%)" offset="0.5" />
            <stop stop-opacity="1" stop-color="rgb(90.69519%, 89.871216%, 89.871216%)" offset="0.53125" />
            <stop stop-opacity="1" stop-color="rgb(90.489197%, 89.614868%, 89.614868%)" offset="0.5625" />
            <stop stop-opacity="1" stop-color="rgb(90.283203%, 89.358521%, 89.358521%)" offset="0.59375" />
            <stop stop-opacity="1" stop-color="rgb(90.077209%, 89.102173%, 89.102173%)" offset="0.625" />
            <stop stop-opacity="1" stop-color="rgb(89.871216%, 88.845825%, 88.845825%)" offset="0.65625" />
            <stop stop-opacity="1" stop-color="rgb(89.663696%, 88.589478%, 88.589478%)" offset="0.6875" />
            <stop stop-opacity="1" stop-color="rgb(89.457703%, 88.33313%, 88.33313%)" offset="0.71875" />
            <stop stop-opacity="1" stop-color="rgb(89.251709%, 88.076782%, 88.076782%)" offset="0.75" />
            <stop stop-opacity="1" stop-color="rgb(89.045715%, 87.820435%, 87.820435%)" offset="0.78125" />
            <stop stop-opacity="1" stop-color="rgb(88.839722%, 87.564087%, 87.564087%)" offset="0.8125" />
            <stop stop-opacity="1" stop-color="rgb(88.633728%, 87.309265%, 87.309265%)" offset="0.84375" />
            <stop stop-opacity="1" stop-color="rgb(88.426208%, 87.052917%, 87.052917%)" offset="0.875" />
            <stop stop-opacity="1" stop-color="rgb(88.220215%, 86.79657%, 86.79657%)" offset="0.90625" />
            <stop stop-opacity="1" stop-color="rgb(88.014221%, 86.540222%, 86.540222%)" offset="0.9375" />
            <stop stop-opacity="1" stop-color="rgb(87.808228%, 86.283875%, 86.283875%)" offset="0.96875" />
            <stop stop-opacity="1" stop-color="rgb(87.602234%, 86.027527%, 86.027527%)" offset="1" />
        </linearGradient>
    </defs>
    <g clip-path="url(#5928b59252)"><rect x="-96" fill="url(#9182c31a17)" width="1152" y="-95.999999" height="1151.999986" /></g>
    <path fill="#000000" d="M 317.234375 531.257812 L 316.992188 562.863281 L 417.441406 562.863281 L 417.441406 848.289062 L 488.492188 848.289062 L 488.492188 562.863281 L 588.941406 562.863281 L 588.941406 531.871094 C 588.941406 514.71875 588.574219 500.386719 588.082031 500.019531 C 587.714844 499.53125 526.585938 499.285156 452.476562 499.40625 L 317.601562 499.777344 Z M 769.300781 498.878906 C 788.898438 503.78125 803.84375 512.476562 817.566406 526.683594 C 824.671875 534.28125 835.203125 548.125 836.0625 551.433594 C 836.308594 552.410156 802.742188 574.953125 782.40625 587.570312 C 781.671875 588.058594 778.730469 584.875 775.421875 579.972656 C 765.5 565.519531 755.089844 559.269531 739.164062 558.167969 C 715.765625 556.574219 700.699219 568.828125 700.824219 589.285156 C 700.824219 595.285156 701.679688 598.835938 704.128906 603.738281 C 709.273438 614.394531 718.828125 620.765625 748.84375 633.75 C 804.089844 657.515625 827.730469 673.195312 842.433594 695.488281 C 858.847656 720.359375 862.523438 760.046875 851.375 789.570312 C 839.125 821.664062 808.742188 843.46875 765.988281 850.699219 C 752.761719 853.027344 721.402344 852.660156 707.191406 850.085938 C 676.199219 844.574219 646.800781 829.261719 628.667969 809.171875 C 621.5625 801.332031 607.722656 780.875 608.582031 779.402344 C 608.945312 778.914062 612.132812 776.953125 615.683594 774.871094 C 619.113281 772.910156 632.101562 765.4375 644.347656 758.332031 L 666.523438 745.46875 L 671.175781 752.332031 C 677.671875 762.253906 691.878906 775.851562 700.453125 780.382812 C 725.074219 793.371094 758.886719 791.53125 775.546875 776.585938 C 782.652344 770.09375 785.589844 763.355469 785.589844 753.433594 C 785.589844 744.488281 784.488281 740.570312 779.832031 733.832031 C 773.832031 725.257812 761.582031 718.03125 726.789062 702.964844 C 686.980469 685.8125 669.828125 675.15625 654.148438 658.25 C 645.085938 648.453125 636.507812 632.769531 632.957031 619.664062 C 630.015625 608.761719 629.28125 581.441406 631.609375 570.417969 C 639.816406 531.953125 668.847656 505.125 710.742188 497.164062 C 724.34375 494.589844 755.945312 495.570312 769.300781 498.878906 " fill-opacity="1" fill-rule="nonzero" />
</svg>