<svg xmlns="http://www.w3.org/2000/svg" xmlns:xlink="http://www.w3.org/1999/xlink" width="1280" zoomAndPan="magnify" viewBox="0 0 960 959.999988" height="1280" preserveAspectRatio="xMidYMid meet" version="1.0"><defs><clipPath id="e2559a8d93"><path d="M 75 0 L 885 0 C 926.421875 0 960 33.578125 960 75 L 960 885 C 960 926.421875 926.421875 960 885 960 L 75 960 C 33.578125 960 0 926.421875 0 885 L 0 75 C 0 33.578125 33.578125 0 75 0 Z M 75 0 " clip-rule="nonzero"/></clipPath><linearGradient x1="0" gradientTransform="matrix(3.75, 0, 0, 3.75, 0.00000575, 0.00002)" y1="128" x2="255.999989" gradientUnits="userSpaceOnUse" y2="128" id="dde5b7be98"><stop stop-opacity="1" stop-color="rgb(12.89978%, 12.89978%, 13.299561%)" offset="0"/><stop stop-opacity="1" stop-color="rgb(13.05542%, 13.027954%, 13.424683%)" offset="0.015625"/><stop stop-opacity="1" stop-color="rgb(13.366699%, 13.285828%, 13.676453%)" offset="0.03125"/><stop stop-opacity="1" stop-color="rgb(13.679504%, 13.543701%, 13.928223%)" offset="0.046875"/><stop stop-opacity="1" stop-color="rgb(13.99231%, 13.801575%, 14.178467%)" offset="0.0625"/><stop stop-opacity="1" stop-color="rgb(14.305115%, 14.057922%, 14.430237%)" offset="0.078125"/><stop stop-opacity="1" stop-color="rgb(14.61792%, 14.315796%, 14.682007%)" offset="0.09375"/><stop stop-opacity="1" stop-color="rgb(14.929199%, 14.573669%, 14.933777%)" offset="0.109375"/><stop stop-opacity="1" stop-color="rgb(15.242004%, 14.831543%, 15.185547%)" offset="0.125"/><stop stop-opacity="1" stop-color="rgb(15.55481%, 15.089417%, 15.437317%)" offset="0.140625"/><stop stop-opacity="1" stop-color="rgb(15.867615%, 15.34729%, 15.689087%)" offset="0.15625"/><stop stop-opacity="1" stop-color="rgb(16.18042%, 15.605164%, 15.939331%)" offset="0.171875"/><stop stop-opacity="1" stop-color="rgb(16.491699%, 15.863037%, 16.191101%)" offset="0.1875"/><stop stop-opacity="1" stop-color="rgb(16.804504%, 16.120911%, 16.442871%)" offset="0.203125"/><stop stop-opacity="1" stop-color="rgb(17.11731%, 16.378784%, 16.694641%)" offset="0.21875"/><stop stop-opacity="1" stop-color="rgb(17.430115%, 16.636658%, 16.946411%)" offset="0.234375"/><stop stop-opacity="1" stop-color="rgb(17.74292%, 16.894531%, 17.198181%)" offset="0.25"/><stop stop-opacity="1" stop-color="rgb(18.054199%, 17.152405%, 17.449951%)" offset="0.265625"/><stop stop-opacity="1" stop-color="rgb(18.367004%, 17.410278%, 17.700195%)" offset="0.28125"/><stop stop-opacity="1" stop-color="rgb(18.67981%, 17.668152%, 17.951965%)" offset="0.296875"/><stop stop-opacity="1" stop-color="rgb(18.992615%, 17.926025%, 18.203735%)" offset="0.3125"/><stop stop-opacity="1" stop-color="rgb(19.30542%, 18.183899%, 18.455505%)" offset="0.328125"/><stop stop-opacity="1" stop-color="rgb(19.616699%, 18.441772%, 18.707275%)" offset="0.34375"/><stop stop-opacity="1" stop-color="rgb(19.929504%, 18.699646%, 18.959045%)" offset="0.359375"/><stop stop-opacity="1" stop-color="rgb(20.24231%, 18.95752%, 19.210815%)" offset="0.375"/><stop stop-opacity="1" stop-color="rgb(20.555115%, 19.215393%, 19.462585%)" offset="0.390625"/><stop stop-opacity="1" stop-color="rgb(20.86792%, 19.473267%, 19.71283%)" offset="0.40625"/><stop stop-opacity="1" stop-color="rgb(21.179199%, 19.73114%, 19.9646%)" offset="0.421875"/><stop stop-opacity="1" stop-color="rgb(21.492004%, 19.989014%, 20.21637%)" offset="0.4375"/><stop stop-opacity="1" stop-color="rgb(21.80481%, 20.246887%, 20.46814%)" offset="0.453125"/><stop stop-opacity="1" stop-color="rgb(22.117615%, 20.503235%, 20.71991%)" offset="0.46875"/><stop stop-opacity="1" stop-color="rgb(22.43042%, 20.761108%, 20.97168%)" offset="0.484375"/><stop stop-opacity="1" stop-color="rgb(22.741699%, 21.018982%, 21.22345%)" offset="0.5"/><stop stop-opacity="1" stop-color="rgb(23.054504%, 21.276855%, 21.473694%)" offset="0.515625"/><stop stop-opacity="1" stop-color="rgb(23.36731%, 21.534729%, 21.725464%)" offset="0.53125"/><stop stop-opacity="1" stop-color="rgb(23.680115%, 21.792603%, 21.977234%)" offset="0.546875"/><stop stop-opacity="1" stop-color="rgb(23.99292%, 22.050476%, 22.229004%)" offset="0.5625"/><stop stop-opacity="1" stop-color="rgb(24.304199%, 22.30835%, 22.480774%)" offset="0.578125"/><stop stop-opacity="1" stop-color="rgb(24.617004%, 22.566223%, 22.732544%)" offset="0.59375"/><stop stop-opacity="1" stop-color="rgb(24.92981%, 22.824097%, 22.984314%)" offset="0.609375"/><stop stop-opacity="1" stop-color="rgb(25.242615%, 23.08197%, 23.234558%)" offset="0.625"/><stop stop-opacity="1" stop-color="rgb(25.55542%, 23.339844%, 23.486328%)" offset="0.640625"/><stop stop-opacity="1" stop-color="rgb(25.866699%, 23.597717%, 23.738098%)" offset="0.65625"/><stop stop-opacity="1" stop-color="rgb(26.179504%, 23.855591%, 23.989868%)" offset="0.671875"/><stop stop-opacity="1" stop-color="rgb(26.49231%, 24.113464%, 24.241638%)" offset="0.6875"/><stop stop-opacity="1" stop-color="rgb(26.805115%, 24.371338%, 24.493408%)" offset="0.703125"/><stop stop-opacity="1" stop-color="rgb(27.11792%, 24.629211%, 24.745178%)" offset="0.71875"/><stop stop-opacity="1" stop-color="rgb(27.429199%, 24.887085%, 24.996948%)" offset="0.734375"/><stop stop-opacity="1" stop-color="rgb(27.742004%, 25.144958%, 25.247192%)" offset="0.75"/><stop stop-opacity="1" stop-color="rgb(28.05481%, 25.402832%, 25.498962%)" offset="0.765625"/><stop stop-opacity="1" stop-color="rgb(28.367615%, 25.660706%, 25.750732%)" offset="0.78125"/><stop stop-opacity="1" stop-color="rgb(28.68042%, 25.918579%, 26.002502%)" offset="0.796875"/><stop stop-opacity="1" stop-color="rgb(28.991699%, 26.176453%, 26.254272%)" offset="0.8125"/><stop stop-opacity="1" stop-color="rgb(29.304504%, 26.434326%, 26.506042%)" offset="0.828125"/><stop stop-opacity="1" stop-color="rgb(29.61731%, 26.6922%, 26.757812%)" offset="0.84375"/><stop stop-opacity="1" stop-color="rgb(29.930115%, 26.948547%, 27.008057%)" offset="0.859375"/><stop stop-opacity="1" stop-color="rgb(30.24292%, 27.206421%, 27.259827%)" offset="0.875"/><stop stop-opacity="1" stop-color="rgb(30.554199%, 27.464294%, 27.511597%)" offset="0.890625"/><stop stop-opacity="1" stop-color="rgb(30.867004%, 27.722168%, 27.763367%)" offset="0.90625"/><stop stop-opacity="1" stop-color="rgb(31.17981%, 27.980042%, 28.015137%)" offset="0.921875"/><stop stop-opacity="1" stop-color="rgb(31.492615%, 28.237915%, 28.266907%)" offset="0.9375"/><stop stop-opacity="1" stop-color="rgb(31.80542%, 28.495789%, 28.518677%)" offset="0.953125"/><stop stop-opacity="1" stop-color="rgb(32.116699%, 28.753662%, 28.768921%)" offset="0.96875"/><stop stop-opacity="1" stop-color="rgb(32.429504%, 29.011536%, 29.020691%)" offset="0.984375"/><stop stop-opacity="1" stop-color="rgb(32.74231%, 29.269409%, 29.272461%)" offset="1"/></linearGradient></defs><g clip-path="url(#e2559a8d93)"><rect x="-96" fill="url(#dde5b7be98)" width="1152" y="-95.999999" height="1151.999986"/></g><path fill="#ffffff" d="M 212.292969 483.183594 L 211.988281 522.5 L 336.9375 522.5 L 336.9375 877.546875 L 425.320312 877.546875 L 425.320312 522.5 L 550.269531 522.5 L 550.269531 483.945312 C 550.269531 462.609375 549.816406 444.785156 549.207031 444.328125 C 548.75 443.71875 472.710938 443.410156 380.519531 443.566406 L 212.75 444.023438 Z M 774.625 442.90625 C 799.003906 449.003906 817.597656 459.820312 834.664062 477.496094 C 843.503906 486.945312 856.605469 504.164062 857.671875 508.277344 C 857.976562 509.496094 816.226562 537.535156 790.929688 553.230469 C 790.015625 553.839844 786.355469 549.878906 782.242188 543.785156 C 769.902344 525.800781 756.949219 518.027344 737.136719 516.660156 C 708.035156 514.675781 689.292969 529.917969 689.445312 555.363281 C 689.445312 562.828125 690.511719 567.246094 693.558594 573.34375 C 699.957031 586.601562 711.84375 594.523438 749.179688 610.675781 C 817.902344 640.242188 847.308594 659.746094 865.597656 687.476562 C 886.015625 718.410156 890.585938 767.78125 876.71875 804.507812 C 861.484375 844.429688 823.691406 871.550781 770.507812 880.546875 C 754.054688 883.441406 715.042969 882.984375 697.367188 879.785156 C 658.816406 872.925781 622.246094 853.878906 599.691406 828.890625 C 590.855469 819.136719 573.632812 793.6875 574.703125 791.859375 C 575.15625 791.25 579.121094 788.8125 583.539062 786.222656 C 587.804688 783.785156 603.960938 774.488281 619.195312 765.648438 L 646.777344 749.648438 L 652.566406 758.183594 C 660.644531 770.523438 678.320312 787.441406 688.988281 793.078125 C 719.613281 809.230469 761.671875 806.945312 782.394531 788.355469 C 791.234375 780.277344 794.890625 771.894531 794.890625 759.554688 C 794.890625 748.429688 793.519531 743.554688 787.730469 735.171875 C 780.261719 724.507812 765.027344 715.515625 721.746094 696.773438 C 672.226562 675.4375 650.890625 662.183594 631.386719 641.152344 C 620.109375 628.964844 609.441406 609.457031 605.023438 593.152344 C 601.367188 579.59375 600.453125 545.609375 603.347656 531.894531 C 613.554688 484.050781 649.671875 450.679688 701.785156 440.769531 C 718.703125 437.574219 758.015625 438.792969 774.625 442.90625 " fill-opacity="1" fill-rule="nonzero"/></svg>